<svg class="amazon-copy__utility__svg" viewBox="0 0 1166 366" role="img" aria-labelledby="amazon-smile-copy"> <title id="amazon-smile-copy">Amazon</title> <style type="text/css">.st0-amazon{fill:#f99d27}.st0-amazon,.st1-amazon{fill-rule:evenodd;clip-rule:evenodd}</style> <switch><g><path class="st0-amazon" d="M716.69 278.61c-65.33 48.21-160.05 73.86-241.61 73.86-114.29 0-217.23-42.25-295.12-112.58-6.12-5.53-.65-13.07 6.69-8.8 84.04 48.91 187.97 78.35 295.3 78.35 72.42 0 152.01-15.03 225.25-46.08 11.04-4.69 20.3 7.27 9.49 15.25z"></path><path class="st0-amazon" d="M743.88 247.58c-8.36-10.71-55.24-5.08-76.3-2.55-6.38.77-7.37-4.81-1.62-8.85 37.4-26.26 98.68-18.69 105.8-9.88 7.18 8.86-1.88 70.3-36.93 99.62-5.38 4.52-10.51 2.11-8.12-3.85 7.88-19.69 25.54-63.79 17.17-74.49z"></path><path class="st1-amazon" d="M669.07 50.63V25.1c.01-3.89 2.94-6.46 6.46-6.46l114.38-.01c3.66 0 6.6 2.67 6.6 6.45v21.89c-.03 3.67-3.12 8.47-8.62 16.05l-59.25 84.61c21.99-.52 45.27 2.78 65.25 14 4.5 2.53 5.7 6.29 6.05 9.97v27.23c0 3.76-4.09 8.1-8.41 5.85-35.21-18.45-81.94-20.48-120.87.21-3.98 2.13-8.14-2.15-8.14-5.9v-25.9c0-4.14.08-11.21 4.24-17.52l68.66-98.49-59.77-.01c-3.63-.01-6.56-2.62-6.58-6.44zM251.8 210.04h-34.79c-3.32-.22-5.96-2.7-6.22-5.88l.02-178.6c0-3.59 3.01-6.44 6.72-6.44l32.4-.02c3.39.18 6.12 2.74 6.34 6v23.32h.64c8.45-22.54 24.36-33.08 45.8-33.08 21.77 0 35.41 10.53 45.15 33.08 8.45-22.54 27.61-33.08 48.09-33.08 14.61 0 30.53 6.03 40.27 19.55 11.05 15.03 8.77 36.84 8.77 56.01l-.02 112.72c0 3.57-3.02 6.43-6.72 6.43H403.5c-3.49-.22-6.26-3-6.26-6.43v-94.67c0-7.53.65-26.32-.98-33.46-2.6-12.03-10.39-15.41-20.46-15.41-8.45 0-17.23 5.64-20.79 14.66-3.57 9.03-3.25 24.04-3.25 34.21v94.67c0 3.57-3.01 6.43-6.71 6.43h-34.76c-3.49-.22-6.26-3-6.26-6.43l-.02-94.67c0-19.93 3.24-49.25-21.44-49.25-25.02 0-24.03 28.57-24.03 49.25l-.02 94.67c0 3.57-3.01 6.42-6.72 6.42zM895 15.34c51.66 0 79.59 44.35 79.59 100.73 0 54.5-30.85 97.74-79.59 97.74-50.68 0-78.28-44.37-78.28-99.61-.01-55.63 27.92-98.86 78.28-98.86zm.32 36.46c-25.66 0-27.28 34.96-27.28 56.76 0 21.8-.32 68.39 26.96 68.39 26.97 0 28.27-37.57 28.27-60.5 0-15.03-.64-33.08-5.2-47.36-3.91-12.4-11.71-17.29-22.75-17.29zM1041.57 210.04h-34.67c-3.49-.22-6.25-3-6.25-6.43l-.05-178.66c.3-3.28 3.18-5.83 6.69-5.83l32.29-.02c3.03.16 5.54 2.24 6.18 5v27.32h.66c9.73-24.43 23.38-36.08 47.41-36.08 15.6 0 30.86 5.64 40.61 21.06 9.1 14.29 9.1 38.33 9.1 55.62v112.39c-.39 3.18-3.23 5.63-6.66 5.63h-34.89c-3.22-.22-5.82-2.58-6.21-5.63v-96.97c0-19.55 2.28-48.11-21.77-48.11-8.45 0-16.25 5.63-20.13 14.27-4.87 10.9-5.53 21.8-5.53 33.84v96.17c-.06 3.58-3.08 6.43-6.78 6.43zM577.89 124.74c0 13.57.32 24.86-6.52 36.93-5.54 9.79-14.33 15.81-24.09 15.81-13.35 0-21.16-10.17-21.16-25.24 0-29.65 26.58-35.03 51.77-35.03v7.53zm35.08 84.85c-2.31 2.08-5.62 2.2-8.22.82-11.58-9.62-13.64-14.05-19.96-23.19-19.11 19.46-32.64 25.29-57.38 25.29-29.3 0-52.09-18.1-52.09-54.25 0-28.24 15.3-47.46 37.11-56.87 18.89-8.28 45.26-9.79 65.45-12.07v-4.5c0-8.29.64-18.08-4.23-25.23-4.24-6.42-12.37-9.04-19.54-9.04-13.27 0-25.07 6.8-27.98 20.9-.6 3.12-2.88 6.23-6.04 6.39l-33.74-3.65c-2.86-.64-6.01-2.93-5.18-7.27 7.75-40.93 44.7-53.29 77.82-53.29 16.92 0 39.06 4.52 52.41 17.34 16.95 15.82 15.3 36.92 15.3 59.88v54.22c0 16.3 6.79 23.46 13.14 32.27 2.22 3.15 2.72 6.91-.12 9.22-7.1 5.95-19.73 16.93-26.67 23.12l-.08-.09zM121.67 124.74c0 13.57.32 24.86-6.52 36.93-5.52 9.79-14.32 15.81-24.09 15.81-13.34 0-21.17-10.17-21.17-25.24 0-29.65 26.59-35.03 51.77-35.03v7.53zm35.09 84.85c-2.3 2.08-5.63 2.2-8.22.82-11.56-9.62-13.64-14.05-19.96-23.19-19.1 19.46-32.64 25.29-57.37 25.29-29.31 0-52.08-18.1-52.08-54.25 0-28.24 15.29-47.46 37.1-56.87 18.88-8.28 45.25-9.79 65.43-12.07v-4.5c0-8.29.65-18.08-4.23-25.23-4.24-6.42-12.37-9.04-19.54-9.04-13.27 0-25.08 6.8-27.96 20.9-.62 3.12-2.89 6.23-6.05 6.39l-33.73-3.65c-2.86-.64-6.02-2.93-5.19-7.27 7.75-40.93 44.7-53.29 77.82-53.29 16.93 0 39.07 4.52 52.42 17.34 16.92 15.82 15.29 36.92 15.29 59.88v54.22c0 16.3 6.78 23.46 13.14 32.27 2.22 3.15 2.72 6.91-.12 9.22-7.11 5.95-19.73 16.93-26.69 23.12l-.06-.09z"></path></g></switch> </svg>