<svg class="svg__intro-bru" xmlns="http://www.w3.org/2000/svg" xml:space="preserve" viewBox="0 0 1001.95 176.08"><switch><g><path d="M467.45 90.92h36.18v24.14h.24l27.58-24.14h40.54l-33.27 29.6 38.49 40.63h-45.76l-27.58-28.75h-.24v28.75h-36.18V90.92zM629.47 88.97c41.07 0 52.24 8.46 52.24 37.27 0 28.82-11.18 37.28-52.24 37.28-41.07 0-52.24-8.46-52.24-37.28 0-28.81 11.17-37.27 52.24-37.27zm0 59.99c16.08 0 15.02-17.63 15.02-23.45s.19-21.98-15.02-21.98c-15.21 0-15.03 16.16-15.03 21.98s-1.07 23.45 15.03 23.45zM759.72 134.77v26.84h37.14V91.4h-37.14v24.14h-26.64V91.4h-37.15v70.22h37.15v-26.84h26.64zM814.41 91.4h38v53.51s30.33.08 34.36.08c4.04 0 6.42-3.55 6.42-3.55v20.18h-78.77V91.4zM981.77 114.65c-7.85-6.19-14.59-8.26-21.83-8.38-7.08-.12-13.55 2.3-13.55 6.53 0 3.34 4.83 4.73 21.75 8.19 13.89 2.86 23.15 9.83 23.15 22.81 0 14.65-24.81 22.94-47 22.94-15.58 0-27.54-2.76-38.24-7.48v-19.67c6.61 6.78 21.42 10.39 32.75 10.39 6.29 0 9.38-.91 9.38-5.82 0-3.04-3.92-5.82-15.79-7.96-22.5-4.05-30.1-10.38-30.1-21.2 0-15.53 19.68-24.78 43.9-24.78 13.06 0 25.06.4 35.6 5.22v19.21z"></path><path d="m872.03 120.04 2.6-4.51c-7.82-3.8-10.13-13.49-6.17-19.01 4.28-5.94 16.17-8.49 22.57.71 5.46 7.85.24 14.49-2.13 16.39-2.37 1.91-16.87 6.42-16.87 6.42zM986.88 92.91c1.61 0 2.87 1.3 2.87 2.93 0 1.64-1.27 2.92-2.87 2.92s-2.89-1.28-2.89-2.92a2.888 2.888 0 0 1 2.89-2.93m0 .46c-1.29 0-2.35 1.1-2.35 2.46 0 1.38 1.06 2.47 2.35 2.47 1.3.02 2.34-1.09 2.34-2.47-.01-1.36-1.04-2.46-2.34-2.46m-.56 4.16h-.5v-3.25c.26-.04.51-.08.91-.08.5 0 .82.11 1.02.26.19.13.31.36.31.67 0 .43-.29.7-.65.8v.02c.29.05.49.32.55.79.08.52.15.71.2.8h-.55c-.07-.09-.15-.4-.21-.83-.07-.41-.29-.57-.71-.57h-.37v1.39zm0-1.8h.37c.45 0 .82-.17.82-.55 0-.29-.22-.58-.82-.58-.15 0-.27.01-.37.03v1.1zM407.75 136.11v-.09c0-5.24 4.09-7.82 10.03-7.82 2.71 0 4.65.41 6.53 1.01v-.6c0-3.45-2.12-5.29-6.03-5.29-2.71 0-4.74.6-6.95 1.52l-1.47-4.37c2.67-1.2 5.29-1.98 9.16-1.98 3.63 0 6.35.97 8.05 2.71 1.79 1.75 2.62 4.32 2.62 7.5v14.4h-5.43v-3.04c-1.66 1.98-4.19 3.54-7.91 3.54-4.55.01-8.6-2.61-8.6-7.49zm16.65-1.75v-1.66c-1.43-.55-3.31-.97-5.52-.97-3.59 0-5.7 1.52-5.7 4.05v.09c0 2.35 2.07 3.68 4.74 3.68 3.67.01 6.48-2.1 6.48-5.19zM436.13 136.39V123.6h-3.08v-4.78h3.08v-6.67h5.57v6.67h6.53v4.78h-6.53v11.92c0 2.16 1.1 3.04 2.99 3.04 1.24 0 2.35-.28 3.45-.83v4.55c-1.38.78-2.9 1.24-5.01 1.24-4.1 0-7-1.8-7-7.13z"></path><g fill="#5E2D91"><path d="M390.88 105.04c1.61 0 2.87 1.3 2.87 2.93 0 1.64-1.27 2.92-2.87 2.92s-2.89-1.28-2.89-2.92 1.29-2.93 2.89-2.93m0 .46c-1.29 0-2.35 1.1-2.35 2.46 0 1.38 1.06 2.47 2.35 2.47 1.3.02 2.34-1.09 2.34-2.47-.01-1.36-1.04-2.46-2.34-2.46m-.56 4.16h-.5v-3.25c.26-.04.51-.08.91-.08.5 0 .82.11 1.02.26.19.13.31.36.31.67 0 .43-.29.7-.65.8v.02c.29.05.49.32.55.79.08.52.15.71.2.8h-.55c-.07-.09-.15-.4-.21-.83-.07-.41-.29-.57-.71-.57h-.37v1.39zm0-1.8h.37c.45 0 .82-.17.82-.55 0-.29-.22-.58-.82-.58-.15 0-.27.01-.37.03v1.1zM207.68 109.35c-4.47 3.05-7.26 6.93-7.23 12.98.06 7.39 12.5 12.9 12.5 12.9 6.7 3.35 3.62 8.08-1.14 7.22-4.16-.78-7.47-2.71-10.19-4.67-.96-.7-2.61-.19-2.65 1.78-.02 1.11-.02 4.08-.02 4.08 0 .9.59 1.81 1.47 2.65 2.16 2.1 7.26 6.21 18.07 6.21 7.9 0 16.73-3.27 17.78-13.34.55-5.06-2.64-11.19-13.16-15.66-3.69-1.56-5.33-3.29-4.26-5.71.97-2.3 4.71-2.68 8.12-1.11 3.84 1.76 7.18-4.34 3.72-6.63-7.88-5.15-17.29-4.63-23.01-.7M359.84 109.35c-4.44 3.05-7.23 6.93-7.2 12.98.05 7.39 12.5 12.9 12.5 12.9 6.7 3.35 3.63 8.08-1.14 7.22-4.19-.78-7.46-2.71-10.2-4.67-.96-.7-2.61-.19-2.64 1.78-.01 1.11-.01 4.08-.01 4.08-.01.9.59 1.81 1.48 2.65 2.15 2.1 7.25 6.21 18.06 6.21 7.9 0 16.68-3.27 17.76-13.34.57-5.06-2.63-11.19-13.15-15.66-3.67-1.56-5.34-3.29-4.29-5.71 1.02-2.3 4.73-2.68 8.13-1.11 3.85 1.76 7.19-4.34 3.73-6.63-7.88-5.15-17.31-4.63-23.03-.7M161.19 145.3c-1.48-6.68-1.31-19.62-.98-23.39.12-1.4-.11-2.39-.75-3.09-1.05-1.16-3.29-1.97-7.32-2.1-7.41-.26-7.74 4.44-7.96 5.77-.6 3.36-1.54 15.04-.35 25.32.38 3.21 3.54 4.64 9.48 4.25 4.48-.3 6.4-1.67 7.23-2.78.78-1.05.99-2.39.65-3.98m-7.94-30.75c4.05 0 7.35-2.62 7.35-5.85 0-1.32-.56-2.57-1.59-3.63-1.41-1.4-3.52-2.21-5.76-2.21-2.23 0-4.34.81-5.74 2.21-1.05 1.05-1.6 2.31-1.6 3.63 0 1.35.56 2.6 1.6 3.65 1.39 1.39 3.51 2.2 5.74 2.2M196.46 110.2c-.48-1.19-1.63-2.85-5.57-3.37-4.1-.49-14.2.08-18.92 1.39-5.26 1.44-5.88 5.21-6.36 8.25-.57 3.52-1.54 16.53.32 27.35.56 3.32 2.24 5.14 5.98 6.55 4.49 1.68 17.57 2.22 20.55.84 1.97-.8 2.28-2.21 2.43-2.52.61-1.21 1.46-4.32 1.46-7.01 0-.64-.21-1.11-.62-1.44-.71-.57-1.93-.57-2.53-.45-1.82.39-5.67.41-9.81.39 0 0-1.21.05-1.77-.63a2.23 2.23 0 0 1-.46-1.43l.16-1.84c.08-.98.89-1.72 1.86-1.69 3.36.03 10.23-.56 10.58-.61.55-.06 1.43-.86 1.62-1.78.16-.69.33-2.76.37-4.48.02-1.53-1.91-1.85-1.96-1.85-.57-.1-5.67-.89-9.53-1.26-.53-.04-.98-.33-1.29-.73-.33-.42-.44-.94-.35-1.46.07-.46.16-.99.25-1.58.15-.93.98-1.62 1.94-1.56 2.23.11 6.34.33 8.94.54 3.24.26 3.76-1.05 4.07-2.67.31-1.52-.82-5.67-1.36-6.95M309.01 136.23c.12-14.33 6.47-25.47 7.2-26.74 1.44-2.45 3.22-2.39 4.91-1.82 2.02.67 5.71 1.77 7.05 2.39 1.25.57 1.86 2.3 1.07 4.19-.92 2.14-5.06 9.98-5.55 17.29-.32 4.99 4.8 10.4 10.95 1.89 6.14-8.49 5.14-20.46 5.14-22.04 0-1.57.6-3.17 2.65-3.45 2.08-.28 4.39-.41 5.13-.41 1.79 0 2.89.99 3.06 2.87.63 7.25-.19 28.9-14.79 38.46-12.76 8.35-26.94 1.15-26.82-12.63M141.12 137.59c-.3-6.98-6.45-9.18-10.04-10.47-.43-.14-1.05-.29-1.43-.43-.43-.14-.4-.29.02-.48.42-.21 1.21-.61 1.21-.61 1.73-.81 7.25-4.09 6.29-10.47-1.16-7.65-11.02-9.1-14.03-9.38l-.04-.01c-3.23-.29-11.91-.19-18.01 1.97-2.96 1.03-3.52 3.35-3.92 5.05l-.13.49c-2.55 9.88-1.72 26.69 1.69 35.27.01.04.02.05.03.09l.02.04c.02.05.41 1.55 2.44 2.03 18.52 4.33 27.49-.16 31.19-3.22 3.2-2.68 4.89-6.19 4.71-9.87m-26.9-21.43c.01-.13.03-.21.07-.25.14-.08.62-.15.69-.17v-.01c.3-.06 7.31-1.41 10.09.56.73.5 1.15 1.18 1.27 1.97.16 1.08-.17 2.11-.99 3.02-1.75 1.97-5.49 3.06-10.01 2.9 0 0-.46-.02-.67-.02-.22 0-.23-.23-.23-.23l-.01-.65-.2-6.59c-.01 0-.05-.29-.01-.53m12.44 23.86c-2.03 2.15-6.59 2.19-11.48 2.02 0 0-.39.03-.74-.02-.21-.05-.2-.26-.2-.26l.01-.71.36-7.72s.01-.41.01-.59.2-.23.2-.23l.59-.07c.32-.05 7.8-1.02 10.92 1.47.82.68 1.32 1.55 1.41 2.59.15 1.43-.22 2.63-1.08 3.52M52.23 137.59c-.29-6.98-6.44-9.18-10.05-10.47-.39-.14-1.04-.29-1.43-.43-.42-.14-.38-.29.02-.48l1.22-.61c1.73-.81 7.23-4.09 6.25-10.47-1.12-7.65-10.99-9.1-13.99-9.38l-.05-.01c-3.23-.29-11.89-.19-17.98 1.97-2.99 1.03-3.53 3.35-3.96 5.05l-.12.49c-2.5 9.88-1.7 26.69 1.7 35.27.02.04.03.05.04.09l.01.04c.02.05.39 1.55 2.45 2.03 18.52 4.33 27.49-.16 31.18-3.22 3.2-2.68 4.9-6.19 4.71-9.87m-26.9-21.43c0-.13.02-.21.08-.25.15-.08.6-.15.69-.17v-.01c.3-.06 7.33-1.41 10.11.56.71.5 1.13 1.18 1.25 1.97.16 1.08-.17 2.11-.98 3.02-1.74 1.97-5.5 3.06-10.01 2.9 0 0-.48-.02-.68-.02-.21 0-.22-.23-.22-.23s-.27-7.53-.24-7.77m12.45 23.86c-2.02 2.15-6.6 2.19-11.5 2.02 0 0-.39.03-.72-.02-.24-.05-.24-.26-.24-.26l.04-.71.35-7.72s.02-.41.02-.59.21-.23.21-.23l.59-.07h.01c.32-.05 7.77-1.02 10.89 1.47.86.68 1.33 1.55 1.42 2.59.14 1.43-.23 2.63-1.07 3.52M98.81 143.18c-.06-.19-.12-.4-.17-.61-3.23-12.33-10.74-27.45-14.81-33.79-1.41-2.21-2.21-2.61-8.16-2.3-5.59.29-7.34 2.58-9.08 5.55-7.53 11.83-13.83 33.21-13.88 33.43-.73 2.59-.62 3.36 6.63 5.72 3.12 1.03 5.19 1.22 6.29.57.71-.42.98-1.22 1.17-2.27.11-.51.4-1.52.9-2.96l.12-.39s.09-.19.27-.15c.19.02.39.05.39.05 4.01.67 9.99.2 14.9-1.18l.43-.13c.22-.06.28.17.28.17l.16.43c.81 2.58 1.38 4.53 1.6 5.32.18.72.55 1.18 1.13 1.39 1.01.4 3.18.25 7.78-2.7 4.9-3.18 4.51-4.54 4.05-6.15m-17.4-5.86c-2.86.38-7.07.46-10.02.22-.34-.03-.3-.29-.2-.52.08-.19 4.86-11.08 4.99-11.39.16-.39.29-.41.43.01.07.15 5.08 11.16 5.05 11.16.06.13.2.47-.25.52"></path><path d="M300.72 95.87c-17.34-8.94-34.46-9.88-45.11-6.69-19.7 5.9-25.79 30.93-7.55 43.19 1.1.74.41 2.3-.98 4.78-1.71 3.11-4.88 9.2-10.48 13.62-3.38 2.66-5.56 3.75-2.79 7.02 0 0 6.17 6.92 10.74 8.92 5.48 2.41 6.86 2 10.95-1.83 2.57-2.41 7.67-8.98 13.81-19.47 3.2-5.44 7.46-5.54 6.88 3.42 0 0-.84 8.62-1.08 10.41-.68 5.14-.15 6.92 4.47 6.97 0 0 9.88-.55 13.32-1.04 4.83-.65 4.56-1.44 5.83-5.25 6.74-20.33 7.33-55.24 7.33-55.24.28-4.68-1.2-6.68-5.34-8.81m-12.66 18.81s-6.14 4.22-6.29 4.33c-.52.4-1.24.88-1.34 2.83-.05.81-.27 6.55-.28 7.26-.01.79-.36 2.96-2.86.76 0 0-4.18-3.67-4.8-4.21-.15-.12-1.57-1.75-3.81-.79l-6.55 2.62s-3.94 1.6-2.47-1.93c1.41-3.45 2.38-6.3 2.69-7.21.32-.97.21-2.33-.59-3.28-.36-.43-3.51-4.59-4.23-5.62 0 0-2.58-3.07 1.72-2.85 0 0 7.35.17 7.47.18.12.01 1.49.1 2.47-1.43 1.2-1.91 4.76-6.36 4.03-5.42.61-.78 2.06-2.73 3.01.5 0 0 1.35 4.24 2 6.03.43 1.21.71 2.03 2.9 2.73l6.75 2.44c.01-.01 3.17.97.18 3.06"></path></g><path d="M292.83 8.82h11.03v39.79h-11.03V8.82zM311.13 8.82h10.29l16.37 21.03V8.82h10.91v39.79h-9.61l-17.05-21.83v21.83h-10.91V8.82zM365.47 18.49h-11.88V8.82h34.84v9.66H376.5V48.6h-11.03V18.49zM393.27 8.82h18.81c6.08 0 10.29 1.59 12.96 4.26 2.33 2.33 3.52 5.34 3.52 9.26v.11c0 6.14-3.24 10.17-8.18 12.28l9.49 13.87H417.2l-8.01-12.05h-4.89V48.6h-11.03V8.82zm18.36 19.1c3.69 0 5.91-1.82 5.91-4.72v-.11c0-3.18-2.33-4.77-5.97-4.77h-7.28v9.61h7.34zM432.83 28.83v-.11c0-11.42 9.21-20.69 21.48-20.69 12.28 0 21.37 9.15 21.37 20.58v.11c0 11.42-9.21 20.69-21.48 20.69-12.28 0-21.37-9.15-21.37-20.58zm31.54 0v-.11c0-5.8-4.09-10.74-10.17-10.74s-10.12 4.89-10.12 10.63v.11c0 5.74 4.15 10.74 10.23 10.74 6.03 0 10.06-4.89 10.06-10.63zM481.37 8.82h15.4c14.15 0 22.39 8.18 22.39 19.67v.11c0 11.48-8.35 20.01-22.62 20.01h-15.18V8.82zm11.02 9.72v20.29h4.49c6.65 0 11.03-3.64 11.03-10.06v-.11c0-6.37-4.38-10.12-11.03-10.12h-4.49zM524.45 31.16V8.82h11.14v22.11c0 5.74 2.9 8.47 7.33 8.47 4.49 0 7.39-2.61 7.39-8.18V8.82h11.14v22.05c0 12.79-7.33 18.47-18.64 18.47-11.25.01-18.36-5.73-18.36-18.18zM566.68 28.83v-.11c0-11.6 8.87-20.69 20.92-20.69 8.13 0 13.36 3.41 16.88 8.24l-8.3 6.42c-2.27-2.79-4.89-4.66-8.7-4.66-5.57 0-9.49 4.77-9.49 10.57v.11c0 5.97 3.92 10.63 9.49 10.63 4.15 0 6.59-1.93 8.98-4.83l8.3 5.91c-3.75 5.17-8.81 8.98-17.56 8.98-11.37.01-20.52-8.69-20.52-20.57zM609.82 8.82h11.03v39.79h-11.03V8.82zM628.13 8.82h10.29l16.37 21.03V8.82h10.91v39.79h-9.61l-17.05-21.83v21.83h-10.91V8.82zM671.44 28.83v-.11c0-11.6 9.09-20.69 21.37-20.69 6.99 0 11.94 2.1 16.14 5.74l-6.48 7.84c-2.84-2.39-5.63-3.75-9.61-3.75-5.74 0-10.17 4.77-10.17 10.86v.11c0 6.48 4.49 11.08 10.8 11.08 2.73 0 4.77-.57 6.37-1.65v-4.83h-7.79v-8.07h18.25v17.85c-4.21 3.52-10 6.2-17.28 6.2-12.39 0-21.6-8.53-21.6-20.58z"></path></g></switch></svg>