<svg class="svg-kclogo-23" aria-label="Kohl's Cares" xmlns="http://www.w3.org/2000/svg" viewBox="0 0 864 262.53"> <style>.kc_logo_23-0{fill:#ed174c}.kc_logo_23-1{fill:#86113e}</style> <path d="M187.79 210.44v-.39c0-28.11 22.41-52.48 51.1-52.48 18.87 0 30.66 8.65 40.1 18.48l-6.88 7.07c-8.65-8.84-18.48-16.51-33.41-16.51-22.8 0-40.49 19.07-40.49 43.04v.39c0 24.18 18.28 43.44 41.28 43.44 14.15 0 25.16-7.27 33.61-16.71l6.68 5.9c-10.22 11.6-22.41 19.85-40.88 19.85-28.9.01-51.11-23.97-51.11-52.08zM298.65 231.08v-.39c0-20.83 17.89-32.63 43.83-32.63 13.95 0 23.59 1.77 33.22 4.32v-4.32c0-20.24-12.38-30.66-33.02-30.66-12.19 0-22.21 3.34-31.45 8.06l-3.54-8.45c11.01-5.11 21.82-8.65 35.58-8.65 13.56 0 24.37 3.73 31.64 11.01 6.68 6.68 10.22 15.92 10.22 28.3v62.5h-9.43v-16.71c-6.88 9.63-19.26 19.07-38.33 19.07-18.67 0-38.72-10.62-38.72-31.45zm77.24-8.45v-11.4c-8.45-2.16-19.65-4.52-34-4.52-21.23 0-33.02 9.43-33.02 23.39v.39c0 14.55 13.76 23 29.09 23 20.44-.01 37.93-12.58 37.93-30.86zM419.72 159.93h9.63v28.5c7.86-17.89 24.57-30.86 44.42-30.07v10.61h-.98c-23.19 0-43.44 17.49-43.44 50.12v41.08h-9.63V159.93zM486.55 210.24v-.39c0-29.09 20.44-52.28 47.56-52.28 28.11 0 45.99 22.8 45.99 52.48 0 1.77 0 2.36-.2 3.93h-83.14c1.77 24.96 19.66 39.51 39.31 39.51 15.53 0 26.14-6.88 34.4-15.72l6.68 5.9c-10.22 11.01-22.21 18.87-41.47 18.87-26.33-.01-49.13-21.05-49.13-52.3zm83.14-4.91c-1.38-20.24-12.97-38.92-35.97-38.92-19.85 0-35.18 16.71-36.95 38.92h72.92zM599.56 247.59l5.7-7.67c11.01 8.45 23.19 13.17 35.97 13.17 13.56 0 24.18-7.47 24.18-19.07v-.39c0-11.79-12.58-16.12-26.53-20.05-16.31-4.72-34.4-9.63-34.4-27.52v-.39c0-16.12 13.56-27.71 33.02-27.71 11.99 0 25.55 4.32 35.58 11.01l-5.11 8.06c-9.24-6.09-20.24-10.02-30.86-10.02-13.76 0-22.8 7.47-22.8 17.49v.39c0 11.2 13.56 15.33 27.91 19.46 16.12 4.52 33.02 10.42 33.02 28.11v.39c0 17.89-15.33 29.29-34.59 29.29-14.56-.01-30.48-5.9-41.09-14.55z" class="kc_logo_23-0"></path><path d="M110.27 5.29 62.75 45.44h-.42V5.29H0v116.8h62.33V74.27h.42l47.52 47.82h78.84l-66.32-67.56 57.33-49.24z" class="kc_logo_23-1"></path><path d="M311.78 10.08C305.16 3.58 296.47.1 286.65 0h-.68c-10.32.1-20.71 3.94-29.36 10.83-18.51-14-42.42-13.89-55.94.37-8.23 8.7-12.61 19.87-12.65 32.3 0 .92.03 1.92.1 3.05.53 8.66 1.62 14.57 5.83 20.98 11.54 17.59 28.5 36.18 50.41 55.24 3.4 2.97 7.76 4.61 12.28 4.61 4.68 0 9.15-1.74 12.61-4.9 21.19-19.36 37.48-37.04 48.42-52.54 3.77-5.34 5.85-11.06 7.16-19.74 2.33-15.34-2.3-29.59-13.05-40.12z" class="kc_logo_23-0"></path><path d="M460.69 78.23v44.64h63.99V6.09h-63.99v40.14h-45.88V6.09h-64v116.78h64V78.23zM554.91 6.09h65.47v88.99s52.25.14 59.19.14c6.97 0 11.06-5.91 11.06-5.91v33.58H554.91V6.09zM843.24 44.76c-13.53-10.29-25.14-13.74-37.61-13.93-12.2-.2-23.35 3.82-23.35 10.86 0 5.56 8.33 7.87 37.47 13.61 23.94 4.76 39.88 16.36 39.88 37.95 0 24.37-42.75 38.15-80.98 38.15-26.84 0-47.45-4.59-65.88-12.44V86.24c11.4 11.28 36.89 17.27 56.42 17.27 10.84 0 16.15-1.51 16.15-9.68 0-5.06-6.75-9.67-27.21-13.23-38.76-6.73-51.86-17.26-51.86-35.26 0-25.83 33.9-41.21 75.62-41.21 22.5 0 43.18.66 61.34 8.68v31.95z" class="kc_logo_23-1"></path><path d="m654.17 53.73 4.49-7.5c-13.48-6.33-17.46-22.42-10.62-31.61 7.37-9.88 27.85-14.11 38.89 1.19 9.4 13.04.4 24.09-3.68 27.25-4.1 3.17-29.08 10.67-29.08 10.67M864 17.12c0 4.35-3.49 7.74-8.02 7.74-4.52 0-8.01-3.39-8.01-7.74s3.49-7.74 8.01-7.74c4.53 0 8.02 3.39 8.02 7.74m-14.78 0c0 3.7 2.89 6.64 6.76 6.64 3.88 0 6.76-2.94 6.76-6.64s-2.88-6.63-6.76-6.63c-3.87 0-6.76 2.93-6.76 6.63m5 4.47h-1.14v-8.94h3.55c2.09 0 3.01.87 3.01 2.47 0 1.58-1.08 2.29-2.32 2.49l2.75 3.97h-1.33l-2.61-3.97h-1.91v3.98zm1.51-4.91c1.4 0 2.77-.04 2.77-1.55 0-1.25-1.08-1.54-2.2-1.54h-2.08v3.09h1.51z" class="kc_logo_23-1"></path> </svg>