<svg width="32" height="32" viewBox="0 0 32 32" fill="none" xmlns="http://www.w3.org/2000/svg">
<path d="M12 24C13.1046 24 14 24.8954 14 26C14 27.1046 13.1046 28 12 28C10.8954 28 10 27.1046 10 26C10 24.8954 10.8954 24 12 24ZM22 24C23.1046 24 24 24.8954 24 26C24 27.1046 23.1046 28 22 28C20.8954 28 20 27.1046 20 26C20 24.8954 20.8954 24 22 24ZM4 0C4.45887 0 4.85885 0.312297 4.97014 0.757464L6.56 7H30C30.6728 7 31.1536 7.65103 30.9558 8.29409L26.9558 21.2941C26.8267 21.7137 26.439 22 26 22H9C8.54113 22 8.14115 21.6877 8.02986 21.2425L3.21922 2H1C0.447715 2 0 1.55228 0 1C0 0.447715 0.447715 0 1 0H4ZM7.04307 8.99992L7.0307 8.9997L9.78078 20H25.2614L28.646 9H7.05548C7.0472 9 7.03894 8.9999 7.0307 8.9997L7.04307 8.99992Z" fill="black"/>
</svg>
