<svg aria-label="Kohl's Logo" fill="#860035" width="163.868" height="24.213" xmlns="http://www.w3.org/2000/svg" xml:space="preserve" viewBox="0 0 288 43.86">
  <switch>
    <g>
      <path fill="#860035" d="M115.75 8.73h-.59l.52.52c.7-.34 1.17-.12 1.41.56.22.65.05 1.22-.27 1.82.45.4.46.96.53 1.51.11.91.46 1.75.74 2.62.23.73.37 1.5.51 2.26.08.43.08.88.11 1.32.05.86.11 1.73.13 2.59.02.79 0 1.57-.04 2.36-.03.46-.17.92-.23 1.38-.07.55-.1 1.11-.16 1.66-.03.22-.06.42.08.63.07.11.05.31 0 .45-.12.34-.43.65-.18 1.05.01.02.01.05-.01.06-.45.52-.16 1.36-.78 1.82-.04.03-.09.07-.08.1.08.79-.73 1.13-.94 1.78-.06.17-.22.29-.18.53.02.15-.16.37-.31.49-.55.45-.87 1-.81 1.73.03.32-.21.41-.45.49-.26.09-.54.15-.43.54.01.04-.04.13-.09.17-.35.28-.71.56-1.08.84-.06-.06-.14-.13-.23-.21-.3.35-.58.7-.89 1.04-.1.11-.23.22-.37.27-.47.17-.95.32-1.43.47-.09.03-.23.03-.25.08-.19.51-.64.36-1.01.44-.22.05-.4.26-.62.34-.63.24-1.28.45-1.91.7-.52.21-1.02.46-1.53.68-.26.11-.54.19-.81.28-.31.11-.62.23-.94.34-.13.04-.25.09-.38.11-1.43.18-2.85.38-4.28.52-.66.06-1.34 0-2.01-.01-1.14-.01-2.28-.02-3.42-.04-.36 0-.71-.01-1.07-.03-1.77-.11-3.54-.23-5.31-.33-1-.06-2.01-.08-3.01-.11-1-.04-2.01-.07-3.01-.1-.16.18-.34.38-.49.54-.13-.01-.19 0-.21-.03-.68-.91-1.79-.7-2.7-.98-.66-.2-1.34-.3-1.93-.7-.63-.43-1.37-.55-2.14-.54-.26 0-.53-.2-.78-.35-.27-.16-.48-.36-.84-.35-.19.01-.4-.17-.57-.31-.46-.4-.97-.72-1.55-.93-.25-.09-.48-.31-.67-.52-.32-.34-.6-.73-.92-1.07-.24-.25-.43-.58-.87-.55-.1.01-.21-.14-.31-.23-.37-.36-.77-.71-1.1-1.11-.19-.23-.29-.55-.39-.84-.14-.38-.24-.77-.37-1.14-.09-.27-.14-.55-.49-.67-.13-.05-.2-.31-.27-.49-.13-.37-.23-.76-.35-1.13-.1-.3-.25-.58-.3-.88-.06-.38-.2-.69-.39-1.03-.21-.36-.2-.89-.18-1.34.02-.56.13-1.1-.1-1.65-.08-.19-.05-.43-.03-.65.05-.54.1-1.06-.19-1.56a.61.61 0 0 1-.08-.32c.09-.9-.07-1.81.07-2.72.12-.79.11-1.6.13-2.4.03-1.27.08-2.53.44-3.76.24-.83.38-1.69.61-2.52.11-.4.32-.79.5-1.17.26-.55.53-1.11.82-1.65.14-.25.35-.46.54-.68.07-.09.21-.15.23-.24.21-.91 1.06-1.21 1.65-1.74.37-.33.79-.59 1.21-.86.26-.17.56-.26.82-.43.25-.16.48-.38.71-.57.07-.05.12-.14.19-.17.75-.4 1.5-.79 2.25-1.19.1-.05.23-.09.27-.17.14-.29.39-.33.66-.39.23-.05.51-.04.6-.35.01-.04.11-.08.17-.09.7-.18 1.28-.62 1.93-.91.52-.23 1.13-.26 1.7-.38.39-.08.78-.17 1.17-.25.44-.08.89-.13 1.33-.22.26-.05.5-.17.76-.23.3-.07.62-.19.91-.15.91.14 1.79-.06 2.68-.1C86 .22 87.21.13 88.41.22c.24.02.49-.04.74-.07.45-.06.87 0 1.32.14.55.17 1.15.16 1.73.2 1.21.07 2.43.02 3.62.19.94.14 1.86.08 2.79.06.15 0 .33-.02.46.04.89.37 1.84.31 2.77.43.29.04.56.15.84.24.72.25 1.43.54 2.16.76.9.28 1.82.5 2.73.78.3.09.56.28.85.39.37.14.76.24 1.13.37.43.15.88.25 1.25.57.28.24.63.4.96.58.36.21.59.6 1.04.69.15.03.27.28.35.46.16.33.38.58.72.74.3.14.57.34.85.52.3.2.59.36 1 .31.4-.05.59.3.4.67-.14.12-.23.23-.37.44zM99.16 22.54c-.05-.37-.22-1.07-.24-1.77-.04-1.47-.21-2.92-.51-4.35-.14-.69-.33-1.38-.51-2.06-.09-.34-.14-.75-.37-.98a12.86 12.86 0 0 0-1.75-1.54c-.54-.39-1.15-.71-1.76-.98-.67-.3-1.36-.62-2.06-.72-1.37-.19-2.74-.4-4.15-.15-.7.12-1.35.32-1.82.77-.83.8-1.56 1.72-1.98 2.82-.18.47-.3.97-.44 1.45-.21.76-.65 1.48-.55 2.31.01.08-.03.17-.05.26-.16.62-.44 1.24-.45 1.87-.04 1.64-.31 3.28.03 4.92.1.51.09 1.04.3 1.55.3.73.4 1.5.33 2.29-.01.13-.03.31.04.39.39.4.35.95.55 1.42.07.16.13.35.25.46.72.63 1.41 1.32 2.2 1.84.64.43 1.4.67 2.12.97.56.23 1.18.23 1.77.32.76.12 1.48.2 2.24-.03 1.42-.43 2.86-.79 4.14-1.57.6-.37 1.05-.81.98-1.58-.01-.1.05-.22.1-.32.19-.4.42-.79.57-1.21.35-.93.74-1.86.61-2.9-.01-.09-.02-.19.01-.26.35-.92.33-1.91.4-3.22zm-32.63-9.87c-.34.37-.48.93-.39 1.44.3-.47.38-.94.39-1.44zm-.87 4.01-.24-.03c.14.3-.02.5-.1.74s.07.56.12.85c.02 0 .04 0 .07-.01l.15-1.55zm2.08-6.59c.07.06.14.12.21.17.22-.22.44-.43.66-.65-.05-.07-.1-.14-.14-.22-.13.02-.31-.01-.37.06-.15.2-.24.43-.36.64zm21.07 24.07c-.02.04-.03.07-.05.11.55.09 1.1.17 1.65.26.01-.05.02-.11.02-.16l-1.62-.21zm5.08-24.06c-.5-.46-.5-.46-.79-.2.29.07.54.14.79.2zm-6.2 23.84c.02-.04.05-.08.07-.11-.26-.13-.45-.39-.73-.46-.02.04-.05.09-.07.13.24.14.49.29.73.44zm5.89-.2-.03-.13c-.29.06-.57.12-.86.17l.03.14.86-.18zm15.8-24.48c.12-.13.2-.21.39-.4l-.81-.18c.15.2.24.33.42.58zm-6.91-5.13c.01-.05.02-.1.03-.14l-.78-.12c-.01.04-.01.07-.02.11.26.04.51.1.77.15zm-24.69 9.75c.04.04.09.07.13.11.1-.12.2-.24.3-.35-.02-.02-.05-.04-.07-.06-.12.09-.24.19-.36.3zm38.01 11.65c-.06.01-.13.01-.19.02.04.14.07.27.11.41.03-.01.05-.01.08-.02v-.41zM130.82 1.48c-.05.17-.06.36-.16.49-.25.31-.26.65-.15 1.04.07-.18.15-.36.26-.64.25.49.34.36.69.44.71-.76.61-1.84 1.11-2.7.37.33.23.8.2 1.21.27.18.57.17.83.39.22.2.67.48 1 .01.02-.03.08-.04.12-.04.24.04.51.21.68-.13.29.14.68.09.85.45.02.05.09.08.18.16.2-.4.39-.76.59-1.16.23.22.46.1.71-.22.02.35.04.57.06.83.1.02.21.05.36.09-.07.15-.14.3-.2.45.4-.01.4-.01.56-.62.06.01.13 0 .18.02.06.02.11.07.21.14.03-.49.06-.95.1-1.41.23.07.47.15.78.25.17.22.01.65.44.91.38.23.64-.02.98.04.62.6.68.61 1.42.24.15.11.3.26.48.34.18.08.38.11.57.15-.04.17-.07.31-.1.45.04.02.07.03.11.05.23-.22.47-.44.73-.69.25.03.48.46.88.11.14-.12.52-.05.63.3.05.16.2.28.34.46.13-.27.24-.5.39-.82.38.36.72.67 1.07 1 .13-.05.27-.11.4-.17.07.07.14.12.15.17.15 1.02.3 2.04.43 3.07.04.31-.03.62-.04.94-.01.13.01.27.01.4.01.25.04.49.04.74v2.09c0 .92-.09 1.84.08 2.77.1.55-.11 1.16-.14 1.74-.01.2.09.4.09.6 0 .17-.07.35-.11.54.35.2.7.2 1.1.15.73-.09 1.47-.08 2.21-.09 1.37-.03 2.74-.02 4.11-.07 1.17-.04.66-.12 1.82-.23 1.11-.1 1.22-.26 2.4-.41.01-.63.03-1.24.03-1.84 0-.45-.08-.89.02-1.34.13-.58-.03-1.17-.02-1.75.01-.88.09-1.75-.08-2.62-.08-.41.04-.86.05-1.29.01-.61 0-1.23.01-1.84 0-.48-.02-.96.04-1.43.03-.27.19-.53.34-.77.13-.21.43-.17.56.06.13.22.24.46.38.74.38-.49.58-1.08 1.24-1.13.29.58 1.29.58 2.11.82.13-.41.26-.83.42-1.33.14-.11.37-.28.63-.48.59.47.14 1.41.91 1.76.04-.08.11-.2.17-.31.18.01.35.03.49.04.04-.44.07-.79.1-1.14.01-.07.32-.73.44-.89.09.61.16 1.13.24 1.65.25-.05.02-.7.51-.35.01.01.79-.12.85-.18.36-.34 1.43-.37 1.66-.05.11.16.1.4.15.64.54-.28 0-.65.12-.94.67-.32.88-.19 1.07.69.14-.02.28-.07.42-.05.12.02.23.1.4.19.1-.19.15-.36.25-.5.12-.18.32-.5.41-.47.51.15.59-.22.76-.67.09.48.16.84.23 1.23.16.01.32.01.47.03.5.06.64-.11.56-.61-.05-.3-.01-.61.08-.92.05.11.09.23.17.41.1-.15.17-.26.3-.45.11.11.26.21.34.35.1.18.11.42.23.57.26.32.61.51 1.04.48.4-.02.81-.08 1.28-.12.39.49.71 1.06.82 1.8.11.82.02 1.6-.01 2.41-.01.27.02.54.07.81.11.69-.24 1.41.17 2.08.03.06 0 .18-.04.26-.28.53-.25 1.07-.13 1.65.26 1.22.17 2.45-.03 3.68-.1.64.01 1.31.03 1.96 0 .09.06.19.04.27-.31.8-.11 1.6-.02 2.41.06.58.04 1.17.05 1.76.01 1.08.02 2.16 0 3.23-.01.53-.03 1.07-.23 1.59-.04.11-.02.27.03.38.26.56.13 1.16.23 1.73.1.59.03 1.11-.13 1.67-.1.33-.02 1.04-.02 1.4.03 1.3-.35 2.59.02 3.9.14.51.09 1.07.09 1.61 0 .72-.07 1.44-.02 2.16.03.47.23.92.47 1.39.02-.16.04-.32.07-.48.02-.18-.01-.39.08-.53.37-.55.14-1.04-.13-1.52-.18-.33-.18-.51.07-.89.03-.05.08-.12.07-.17-.21-1.15.11-2.3.03-3.44-.05-.65-.2-1.3-.19-1.95 0-.56 0-1.45.04-2.02.06-.84.23-1.7-.01-2.56a2.85 2.85 0 0 1-.03-1.33c.17-.86.07-1.75.33-2.61.14-.47.04-1.03 0-1.55-.04-.58-.17-1.16-.2-1.74-.02-.56.11-1.13.04-1.68-.09-.67.01-1.33-.04-2-.05-.63-.28-1.29-.02-1.93.04-.1-.01-.22-.01-.34 0-.44-.28-.9.1-1.34.09-.11.02-.39-.02-.59-.25-1.12-.05-2.22 0-3.34.02-.46-.23-.93-.37-1.39-.05-.15-.16-.27-.25-.43.11-.14.22-.28.32-.41.16.06.31.11.51.19.02-.16.08-.31.04-.39-.18-.31-.4-.59-.59-.9-.08-.14-.1-.31-.17-.54.42.05.73.04 1.01.13.15.05.26.28.35.46.52 1.01.48 2.09.43 3.18-.01.27-.01.54-.01.81v2.26c.01.84.07 1.68.01 2.52-.07.99.04 1.99-.25 2.96-.02.08-.02.21.03.26.3.34.19.71.15 1.1-.03.36-.01.73-.01 1.09 0 .52 0 1.04.01 1.56 0 .29.05.58.05.87 0 .97-.01 1.94-.02 2.91 0 .11-.04.22-.01.32.24.97.05 1.93-.01 2.9-.03.45.02.9.03 1.36 0 .02.02.05.02.07-.23 1.03.26 2.44-.22 3.46-.09.2-.02.49 0 .73.07.79.21 1.58.2 2.37-.01.75-.07 1.49.04 2.24.05.34-.08.71-.11 1.07-.06.67-.1 1.34-.15 2.02-.31.06-.57.54-.88.07-.14-.22-.67-.14-.29-.73-.63.63-.99 1.27-1.69 1.54-.1.04-.21.11-.26.2-.14.28-.39.24-.62.24-.12 0-.24-.31-.36-.64-.07.22-.13.45-.2.67-.74-.1-1.45-.04-1.9.71l-.73-.67c-.03.03-.07.05-.1.08-.04-.28-.09-.57-.14-.88-.59-.24-1.01.05-1.33.56.03.36.05.72.08 1.11-.65-.59-.65-.59-.69-1.04-.6.27-.74-.57-1.29-.53-.04.17-.09.35-.14.57-.72-.13-2.75-.05-3.43.22-.12-.26-.25-.52-.37-.77-.23-.01-.42-.03-.62-.04.11-.75.11-.76.68-.49.15-.44-.41-.43-.46-.82.16.08.3.15.52.25 0-.21.06-.42-.01-.48-.44-.41-.44-.98-.58-1.5-.06-.22-.12-.45-.45-.42.05.24.11.47.16.71.03.13.07.27.08.4.08.72-.08 1.08-.73 1.41-.29.15-.55.3-.64.61-.1.38-.38.43-.67.43-.37 0-.29-.33-.33-.56-.01-.08-.07-.15-.14-.29-.1.14-.21.23-.2.29.06.35-1.32.15-1.38.32-.06.16-.05.42-.15.48-.14.08-.37.01-.56-.11-.13.09-.24.2-.38.27-.32.16-.6.06-.79-.26-.35-.58-.45-1.24-.49-1.89-.04-.7.04-1.41.01-2.12-.04-1.03-.17-2.05-.21-3.08-.03-.79-.04-1.6.09-2.37.11-.6-.1-1.15-.07-1.73.01-.29-.06-.91-.07-1.2-.01-.74 0-1.48 0-2.3-.68-.09-.63-.22-1.24-.24-1.28-.05-.56-.07-1.85-.06-.9.01-1.8.11-2.7.11-1.03 0-2.06-.07-3.09-.12-.87-.04-1.74-.11-2.63-.17-.25.6-.16 1.16-.15 1.72.01.6.05 1.19-.05 1.8-.09.55.02 1.13.04 1.7.01.31.07.63.02.93-.07.42-.11.81-.01 1.26.1.44.18.94-.03 1.4-.02.04-.04.09-.03.13.29.88.04 1.79.1 2.68.07.95.11 1.93-.25 2.87-.11.28-.25.46-.54.52-.02-.78-.07-1.14-.5-1.66-.3.97-.74 1.9-1.66 2.45-.05-.35.04-.82 0-1.17-.06-.03-.43-.12-.56-.19-.04.03-.08.05-.1.08l-.32.59c-.15-.29-.49-.92-.76-.68-.03.03-.28-.19-.37-.25.09-.25.22-.43.2-.59-.08-.77-.03-1.56-.43-2.27.05.63-.3 1.28.14 1.91.21.3-.29 1.65-.61 1.88-.26.18-.54.25-.86-.19.12.59.2 1 .29 1.43-.22-.14-.4-.25-.67-.42-.02-.13-.05-.39-.09-.67-.49.23-.96.44-1.42.67-.08.04-.15.12-.18.19-.13.29-.36.28-.62.21-.07-.28-.13-.56-.19-.79-.27-.03-.53-.07-.81-.1-.04-.19-.06-.34-.1-.49-.07-.24-.27-.49-.46-.42-.37.13-.33-.2-.52-.34-.3.55-.22 1.16-.28 1.72-.28.03-.5.05-.72.08-.52-.38-.24-.91-.24-1.45-.79.19-.89 1-1.35 1.44-.47.04-.22-.49-.51-.65-.04.08-.1.15-.11.22-.14.61-.2.63-.81.5-.14-.03-.31.07-.51.13 0 .01-.03-.04-.07-.09-.04-.05-.08-.1-.14-.18l-.57.3c-.04-.18-.12-.39-.08-.42.36-.26.17-.56.1-.86-.34.22-.55.18-.99-.2.11-.02.21-.03.34-.06-.01-.16.11-.36-.12-.45-.08.19-.14.35-.2.51-.12.06.1.12-.05.19-.07-.09-.17-.19-.27-.31-.58.45-.76 1.03-.67 1.74-.21-.42-.11-.97-.53-1.2-.4.08-.64.12-.98.19-.19.54-.19.53-.83.53-.18 0-.36.03-.53.05-.5.05-.68-.18-.8-.66-.31-1.23-.18-2.47-.23-3.71-.03-.69.08-1.39.08-2.08 0-.81-.06-1.62-.08-2.43-.03-.92-.07-1.85-.08-2.77-.01-.49-.26-.95-.1-1.47.3-.97.08-1.96.04-2.94-.01-.24-.03-.48-.03-.72.02-.82.06-1.64.09-2.47.02-.74.06-1.48.05-2.22-.02-1.04-.08-2.09-.11-3.13-.04-1.21-.09-2.41-.11-3.62-.02-.99 0-1.99 0-2.98 0-1.04-.14-2.09.01-3.11.13-.88-.12-1.71-.06-2.57.01-.13-.05-.26-.07-.4-.02-.16-.11-.37-.04-.46.37-.5.17-1.1.33-1.63.08-.27.05-.58.08-.99-.03.02.07-.04.2-.14.31.45.62.88.96 1.38.08-.24.2-.44.2-.64 0-.42.43-.32.58-.54.16-.23.27-.51.44-.73.05-.06.25-.01.37-.01-.1.52-.2 1.02-.31 1.59.15-.1.26-.21.37-.22.14-.02.3.04.38.05.37-.44.7-.85 1.04-1.25.14.15.22.24.3.32a.643.643 0 0 1-.07-.05zm44.7.74c-.05-.1-.09-.19-.14-.29-.07.09-.15.18-.2.29-.01.02.11.1.17.15-.21.3-.08.61-.08 1.08.18-.42.31-.68.4-.95.02-.07-.1-.19-.15-.28zm-23.5 14.53c3.63.38 4.56-.05 8.16-.42.08-.01.16-.11.24-.17-3.7.23-4.7.67-8.4.59zM132.17 40.9c.4-.56.35-.71-.26-.97.08.31.16.58.26.97zm15.32-13.98c-.05 0-.09.01-.14.01v1.43c.35-.54.2-.99.14-1.44zm-.06 6.62-.19-.03c.06.41.11.81.17 1.22.04 0 .07-.01.11-.01l-.09-1.18zm-18.4-.85c.01.2.03.39.05.67.3-.35.3-.35-.05-.67zm18.17-.44c-.02 0-.04.01-.07.01l.06.76c.03 0 .07-.01.1-.01l-.09-.76zm20.47 1.42c.07-.17.12-.26.14-.36.01-.06-.03-.13-.05-.23-.17.13-.3.21-.43.31.15.13.21.18.34.28zM175.4 3.9c.05.02.11.04.16.05.03-.11.07-.21.1-.32-.04-.01-.11-.04-.12-.04-.05.11-.09.21-.14.31zm-8.27 33.14c.04 0 .07.01.11.01.01-.13.03-.26.04-.4-.03 0-.06-.01-.09-.01l-.06.4zm5.67-34.32c.04.01.08.02.11.03.04-.11.08-.23.12-.34-.05-.02-.09-.03-.14-.05-.02.12-.06.24-.09.36zM5.92 4.84c.11-.35.36-.33.65-.24.02-.17.04-.32.07-.52l-.66.03c.05-.35.09-.69.15-1.02.02-.1.09-.27.16-.28.68-.12.35-.79.62-1.13-.25-.46.11-.75.35-1.23.1.54.18.97.27 1.44.17-.04.32-.07.47-.11.08.15.17.3.26.45.42.11.63-.13.72-.39.49-.22.77.63 1.25.1.52.21.82-.16 1.16-.54.07.19.13.33.23.59.09-.16.15-.27.26-.47.27.28.49.51.73.75.6-.21.6-.21 1.48-2.09.04.42-.05.78.35.92.45.16.5-.4.87-.45.04.26.08.5.12.73.61.1.61.1.95-.34.41.36.82.72 1.22 1.06.13-.44.55-.84.45-1.42.12.04.21.08.4.15.01.07.04.26.05.31.23.3.43.47.51.7.09.24.06.52.08.78.58-.14.98-.52 1.52-.53.1 0 .21-.15.28-.26.36-.52.36-.52.99-.19 0 .2-.01.42 0 .65.03.55.07 1.09.11 1.63.01.09.03.18.02.27-.08.94-.17 1.88-.25 2.82-.01.11.01.23.04.33.2.6.04 1.21.06 1.82.01.65-.25 1.28-.06 1.94.06.2-.13.47-.07.66.2.64.03 1.25-.01 1.88-.01.19.08.39.14.67.31-.26.55-.45.78-.66 1.52-1.42 3.03-2.84 4.56-4.25.21-.2.47-.34.7-.52 1.59-1.23 3.01-2.67 4.48-4.04.93-.87 1.87-1.71 2.81-2.57.68-.62 1.52-.95 2.33-1.34.19-.09.43-.04.56-.05.2.34.36.6.51.86.61-.27 1.08-.75 1.72-.74.14.28.28.55.44.85.19-.1.32-.17.5-.26v.55c.6-.3 1.12-.54 1.63-.81.51-.26 1.01-.51 1.63-.4.01.12.01.22.02.37.27-.11.53-.21.8-.32.23.25.06.74.56.78-.01-.06-.01-.11-.02-.15-.01-.04-.05-.07-.09-.13.16-.14.33-.27.51-.42.12.08.23.15.33.22.25-.14.5-.27.8-.44v.47c.42-.32.7.2 1.1.13.4-.07.82-.08 1.23-.11.04.05.07.1.11.15-.12.05-.23.1-.4.18.28.08.42.16.54-.13.15-.35.4-.3.6-.07-.19.25-.37.48-.55.72.03.04.05.08.08.12.72-.34 1.21-1.13 1.96-1.18.31.31.56.6.85.83.09.07.32.06.42-.01.23-.16.42-.39.66-.61l.53.39c-.24.42-.23.45.29.82.11-.12.22-.25.38-.43.34.25.68.46.98.72.36.31.35.33-.01.65-.17.11-.4.24-.23.52-.26-.2-.4.02-.56.17-.19.18-.38.38-.58.55-.34.3-.69.58-1.02.88-.07.07-.09.2-.13.29.03.02.06.04.1.07.73-.66 1.46-1.31 2.19-1.97.1-.11.19-.23.3-.36.24.19.25.32.04.5-1.14 1.03-2.27 2.08-3.41 3.1-1.01.9-2.04 1.78-3.05 2.67-1.2 1.06-2.4 2.13-3.59 3.2-.6.54-1.17 1.12-1.77 1.67-.65.6-1.3 1.19-1.97 1.76-.58.5-1.17.97-1.81 1.49.9.95 1.79 1.88 2.66 2.82.88.94 1.73 1.9 2.61 2.84.43.46.9.88 1.35 1.32.53.52 1.08 1.03 1.6 1.57.75.77 1.48 1.57 2.23 2.35.81.84 1.62 1.67 2.44 2.5.35.35.72.69 1.08 1.03.84.78 1.69 1.56 2.53 2.35.23.22.4.5.63.71.74.66 1.49 1.3 2.23 1.96.42.37.87.71 1.19 1.37-.44-.25-.88-.17-1.13-.6-.07-.12-.3-.15-.45-.23-.1-.16-.19-.34-.32-.47-.56-.54-1.14-1.08-1.72-1.6-.17-.15-.38-.25-.57-.37.06.25.16.44.3.57.63.57 1.26 1.14 1.91 1.69.11.09.27.11.41.17.11.14.21.29.32.43.33.4.32.54-.01 1.02-.05.08-.06.19-.09.3-.15-.17-.27-.31-.45-.51-.15.31-.27.54-.41.82-.15-.19-.31-.37-.49-.58-.19.01-.41.02-.73.04.21.24.16.53.5.61.33.08.16.38.18.69-.57-.16-1.12-.24-1.59-.47-.45-.23-.82-.62-1.22-.94-.07.05-.12.08-.22.15.08.12.16.24.28.4-.52.14-.7.57-.86 1.09-.78-.42-1.45-1.12-2.44-.8l.03.46c-.1.01-.17.04-.22.01-.24-.11-.5-.21-.71-.37-.83-.65-1.31-.55-1.84.4-.23-.04-.46-.09-.71-.14-.04.14-.07.25-.1.36-.08-.02-.17-.05-.31-.09.05.15.09.27.16.5-.8-.24-1.12-.91-1.6-1.37-.68.97-1.67.88-2.51.64-.29-.08-.57-.23-.86-.28-.22-.04-.46.02-.72.04.04.1.08.21.12.32-.34.14-.34.14-1.16-.89-.04.01-.08 0-.12.02-.33.16-.6-.25-.99-.06-.24.12-.64-.08-1.07-.16-.32.12-.33.6-.58.9-.73-.02-1.06-.69-1.61-.96l-.43.46c-1.05-.73-2.12-1.37-2.88-2.43-.39-.54-.9-1.02-1.4-1.46-.84-.73-1.65-1.48-2.37-2.33-.15-.17-.31-.32-.47-.49-.41-.42-.82-.84-1.22-1.26-.45-.48-.85-1-1.33-1.44-.69-.63-1.31-1.3-1.89-2.04-.98-1.24-2.02-2.43-3.03-3.65-.38-.46-.74-.94-1.23-1.39 0 .76 0 1.52-.02 2.28-.01.48-.06.95-.07 1.43-.02.91-.03 1.81-.05 2.72 0 .14.02.29-.03.41-.21.5-.35.98 0 1.48.05.07.03.27-.03.32-.2.14-.12.3-.11.48.03.71.05 1.43.03 2.14-.02.87-.05 1.73-.11 2.6-.08 1.04-.2 2.07-.31 3.17-.27-.17-.54-.33-.84-.52-.2.14-.43.29-.65.44-.21.14-.52.08-.69.34-.05.08-.2.18-.28.16-.47-.06-.66.31-.95.61-.17-.19-.38-.33-.49-.54-.2-.37-.45-.51-.89-.27v-.79c-.33-.1-.64-.19-.94-.28-.37.38.13.41.27.65-.17.03-.27.04-.4.06-.28.55-.88 1.03-.61 1.85-.21-.37.03-.93-.58-1.1-.19.17-.4.35-.63.56-.05-.38-.1-.7-.16-1.14-.21.24-.35.4-.52.59-.13-.04-.31-.11-.52-.18-.99.29-.99.29-1.15-.28-.2.03-.41.08-.61.1-.66.08-.96-.24-.89-.93.03-.25.03-.5-.03-.77-.11.29-.18.6-.32.87-.15.3-.36.57-.58.9-.34-.05-.66.37-1.14.19-.13-.05-.41.29-.72.52v-.88c.01-.61-.08-.7-.71-.66-.06 0-.13-.03-.24-.06.07-.19.14-.37.23-.62-.24.02-.43.02-.6.06-.62.16-.85.61-.84 1.19-.06.05-.09.09-.13.1-.85.23-.94.15-.96-.75-.01-.32.01-.64-.02-.96-.01-.18-.09-.35-.13-.53-.44.03-.54.12-.52.46.01.17.01.36.07.51.17.4.09.69-.25.96-.1.08-.13.28-.19.42-.29.12-.6-.12-.92.11-.24.17-.66-.16-.75-.5-.15-.58-.38-1.14-.24-1.79.06-.3-.15-.65-.16-.98-.01-.36.1-.72.09-1.09-.02-1.62-.07-3.24-.08-4.85 0-.56.08-1.13.12-1.7.03-.5.1-.99-.12-1.48-.08-.18 0-.45.02-.68.04-.68.09-1.36.14-2.05.01-.18.04-.36.09-.54.09-.33.17-.66 0-.99-.03-.06-.07-.14-.06-.19.19-.69-.17-1.34-.14-2 .02-.59.12-1.17.19-1.76.01-.13.08-.29.04-.4-.14-.34-.06-.66-.05-1 .03-.67-.05-1.35-.04-2.03 0-.6.08-1.19.09-1.79.01-.61-.03-1.22-.03-1.84.01-1.17-.1-2.33.11-3.5.11-.57.05-1.21.05-1.82.01-.94.03-1.87.02-2.81 0-.38.18-.62.55-.76-.52-.36-.59-.54-.47-1.14.03-.16.07-.31.07-.47 0-.16-.04-.31-.05-.36.46-.46.85-.85 1.24-1.25.12.15.22.26.42.5v-.65c.52-.15.62-.1.74.33l.12.47c.05 0 .11-.01.16-.01.02-.14 0-.3.07-.4.11-.15.27-.27.43-.38.02-.02.16.07.15.09-.03.15-.08.29-.14.49.11.02.24.03.35.07.12.03.25.07.34.14.26.21.25.71.73.66.13.34.29.66.37 1.01.03.14-.09.33-.13.44.18.31.35.6.51.88-.08-.07-.16-.14-.29-.26l-.2.6c.22-.15.35-.25.49-.34zM54.8 35.37c.18.54.65.76 1.07 1.04.04.03.18-.1.4-.23-.57-.3-1.03-.55-1.49-.8.23-.71-.41-.82-.71-1.21-.13.6.07.93.58 1.07.05.02.1.09.15.13zm.39-1.48c.35.47.74.9 1.29 1.13-.33-.49-.74-.89-1.25-1.17-.13-.18-.3-.34-.4-.54-.3-.59-.84-.85-1.4-1.09-.05-.14-.06-.32-.16-.42-.25-.26-.54-.47-.8-.72-.68-.68-1.34-1.38-2-2.07-.15-.16-.28-.3-.51-.15.02-.11.08-.29.04-.33-.94-.83-1.58-1.94-2.58-2.7-.63-.62-1.26-1.25-1.89-1.87l-.66-.66c-.63-.66-1.27-1.31-1.88-1.99-.68-.75-1.33-1.53-2.13-2.16-.05-.37-.29-.55-.56-.69l-.11.11c.21.2.42.41.64.61.51.65 1.01 1.31 1.54 1.94.14.17.38.25.52.41.49.53.95 1.09 1.42 1.63.06.07.15.1.21.17.32.31.69.59.95.96.47.66 1.14 1.08 1.76 1.56.04.03.13-.01.19-.02 0 .1-.04.24.01.3.38.47.71 1 1.18 1.36.53.4.9.92 1.36 1.37.59.58 1.17 1.17 1.76 1.75.56.54 1.14 1.07 1.71 1.6.23.3.42.64.69.89.34.29.71.53 1.06.79zM51.02 8.05c-.21.11-.45.19-.61.35-.59.55-1.13 1.14-1.72 1.68-.52.48-1.08.92-1.62 1.39-.12.1-.17.28-.26.42-.46.12-.83.47-1.08 1.16l1.08-1.17c.64-.53 1.28-1.05 1.9-1.59.3-.26.59-.55.87-.83.48-.47.95-.95 1.42-1.42.45 0 .69-.3 1-.72-.56.07-.79.38-.98.73zm-31.01 8.22c.32-.58.43-3.46.18-4.32-.22 1.48 0 2.84-.18 4.32zm22.86-.93c.56-.15 2.17-1.61 2.32-2.14l-2.32 2.14zM19.96 27.36c.03 0 .07-.01.1-.01.02-.11.04-.22.04-.33.05-.86.1-1.72.12-2.58.01-.23-.1-.45-.15-.68-.04.01-.08.01-.12.02.01 1.19.01 2.39.01 3.58zm20.47-9.69c.68-.57 1.36-1.13 2.04-1.7-.04-.05-.08-.09-.11-.14-.68.59-1.55.93-1.93 1.84zm3.24 6.13c-.3-.49-.76-.62-1.31-.82.39.39.69.68 1 .99.07-.04.17-.1.31-.17zm1.13 1.61c.1.49.33.84.89.85.06-.7-.7-.46-.89-.85zm-38.33-14c-.14.1-.27.16-.27.21.05.4.12.79.2 1.34.12-.24.19-.32.19-.4-.02-.35-.07-.71-.12-1.15zm9.15 27.09c.05-.01.1-.02.15-.02-.07-.21-.2-.43-.2-.64 0-.21.12-.42.22-.7-.52.21-.52.34-.17 1.36zm33.2-8.9c.25.25.5.49.82.8.02-.57-.25-.84-.82-.8zm-.45-.5c-.01-.49.04-.85-.42-.98-.18.41.01.66.42.98zm2.75 2.67-.13.13c.23.23.46.46.75.74.07-.24.1-.36.14-.5-.27-.12-.52-.25-.76-.37zm-31.11-.06c.01.01.02.01.04.02v-1.57c-.06 0-.12.01-.18.01.04.51.09 1.02.14 1.54zM4.8 14.43h.07v-1.46H4.8v1.46zm17.58 4.03c-.26.05-.45.08-.73.14.18.13.3.22.45.34.1-.18.18-.3.28-.48zm-2.44 3.84c.29-.39.29-.39.08-.79-.03.34-.05.56-.08.79zm-4.08 7.45c-.06.01-.12.01-.18.02.04.2.09.41.13.61h.05v-.63zm6.85-10.56.12.15.39-.3-.08-.11c-.14.08-.28.17-.43.26zm-6.96 17.15c-.27 0-.39.09-.28.32.02.05.15.06.26.1 0-.16.01-.28.02-.42zm42.32 2.08c-.23-.2-.36-.32-.53-.47-.09.46.13.47.53.47zM15.91 14.09c-.04.02-.08.05-.12.07.08.13.16.27.25.4.03-.02.07-.04.1-.06-.07-.13-.15-.27-.23-.41zm35.97 18.98c.07 0 .13-.01.2-.01l-.06-.44c-.05 0-.1.01-.14.01v.44zM5.78 18.08c.04-.14.07-.2.08-.27 0-.06-.03-.11-.05-.17-.03.01-.05.02-.08.03.01.11.03.21.05.41zM53.16 6.36c-.22-.02-.4 0-.36.33.15-.14.26-.23.36-.33zM241.56 37.51c-.08-.17-.17-.34-.28-.56.12-.05.24-.1.41-.18.05-.13.13-.34.2-.53-.14-.1-.31-.24-.53-.4.27-.25.41-.38.51-.47-.04-.34-.07-.66-.11-1.02h.74c-.08-.13-.14-.23-.21-.32-.06-.08-.19-.15-.18-.21.04-.54-.26-.94-.51-1.38a6.36 6.36 0 0 1-.65-1.8c.04-.02.08-.05.11-.07.09.06.18.13.27.19.09-.82.24-.9 1.11-.56l-.11-.62c.14-.03.32-.03.46-.11.12-.07.19-.22.3-.37.12.08.24.12.29.2.42.61 1.08.81 1.73 1.02 1.61.52 3.22 1.04 4.84 1.51 1.2.34 2.42.62 3.64.89.96.21 1.94.41 2.92.51 1.55.16 3.11.24 4.6.35.6-.54 1.13-1.04 1.67-1.51.68-.58.76-1.09.27-1.82-.27-.4-.57-.77-.81-1.19-.78-1.32-2.12-1.84-3.43-2.4-.07-.03-.17.01-.26 0-.54-.06-1.07-.1-1.6-.31-.54-.21-1.13-.38-1.75-.29-.2.03-.42-.12-.63-.16-1.21-.23-2.4-.51-3.56-.94-.42-.16-.88-.17-1.33-.24-.38-.06-.78-.06-1.15-.16-.26-.07-.5-.24-.75-.37-.15-.08-.3-.24-.45-.23-.47.02-.87-.22-1.28-.36-.22-.07-.4-.26-.59-.4-.27-.21-.52-.44-.8-.64-.08-.06-.22-.09-.31-.06-.37.13-.57-.08-.78-.33-.17-.2-.31-.46-.62-.43-.35.03-.5-.17-.65-.44-.26-.5-.5-.99-.91-1.41-.26-.27-.28-.75-.44-1.13-.11-.25-.28-.48-.41-.72-.21-.4-.51-.79-.58-1.22-.16-1.06-.24-2.12.08-3.18.22-.74.31-1.51.56-2.24.21-.6.53-1.16.85-1.7.44-.73 1.01-1.36 1.63-1.96.93-.9 1.99-1.62 2.94-2.49.58-.53 1.41-.78 2.08-1.22 1.03-.68 2.22-.94 3.34-1.4 1.6-.66 3.27-1.14 4.93-1.65.47-.15 1-.12 1.5-.18.58-.06 1.15-.13 1.73-.18.57-.05 1.15-.02 1.7-.15 1.25-.28 2.51-.24 3.78-.26.42 0 .83-.12 1.24-.17.47-.05.91.05 1.34.25.28.14.55.17.88.03.26-.11.6-.04.9-.07.15-.01.29-.05.48-.09l.11.62c.8.12 1.59.24 2.38.34 1.81.24 3.59.62 5.37 1.03 1.59.36 2.97 1.16 4.44 1.76.05.21-.19.3-.09.57.13.36.05.83-.04 1.22-.07.31.02.49.17.72.47.7.68 1.47.41 2.28-.16.47-.4.91-.34 1.43.01.08-.11.18-.17.27-.16.24-.31.46-.13.78.07.12-.02.32-.04.49h.37c.02.46-.25.25-.35.23-.28.34-.54.66-.79.96.06.02.18.07.32.13-.57.45-.57.45-.66.71-.46.11-.88 0-1.32-.21-.5-.25-.93-.55-1.26-1-.31-.41-.74-.57-1.24-.61-.3-.02-.61-.07-.91-.13-.84-.15-1.69-.29-2.53-.46-.73-.14-1.46-.31-2.18-.47-.15-.03-.31-.07-.46-.06-1.49.08-3-.02-4.48.31-.54.12-1.07.24-1.6.39-.26.07-.48.2-.58.49-.05.14-.16.32-.28.35-.74.18-.71.86-.96 1.41.38.3.75.63 1.17.9.87.58 1.86.92 2.87 1.09.88.15 1.8.22 2.69.13.71-.07 1.36.09 2.02.18.71.1 1.4.37 2.11.5 1.11.2 2.12.7 3.17 1.06 1.74.59 3.3 1.56 4.93 2.36.17.08.31.24.48.34.16.09.35.15.53.21.18.06.41.06.55.18.91.75 1.84 1.49 2.58 2.41.16.2.32.43.41.67.34.88.64 1.78.97 2.67.09.24.3.46.34.7.07.36.13.77.04 1.12-.1.38-.07.72-.02 1.08.08.51.14 1-.34 1.38-.11.08-.15.27-.18.42-.22 1.03-.86 1.87-1.24 2.83-.1.25-.36.44-.55.65-.07.08-.17.14-.24.23-.92 1.14-2.18 1.95-3.07 3.13-.53.69-1.22 1.17-2.11 1.37a5.1 5.1 0 0 0-2.05 1c-.75.6-1.64.83-2.51 1.12-.76.26-1.53.51-2.29.77-.99.34-1.99.64-3.06.63-.11 0-.21.02-.32.04-1.08.2-2.15.39-3.23.59-.19.04-.38.14-.58.14-.65-.01-1.28.22-1.91.22-.69 0-1.39-.17-2.08.02-.1.03-.22.02-.33 0-1.45-.25-2.92-.15-4.38-.22-.07 0-.13 0-.2-.02-1.64-.33-3.29-.61-4.92-1.02-1.79-.45-3.55-1.01-5.32-1.54-.32-.09-.61-.24-.92-.37-.92-.37-1.86-.68-2.74-1.12-.63-.31-1.36-.53-1.8-1.23.12-.09.22-.18.27-.22v-.71c-.04.03-.15.07-.26.11zm4.82-6.1c-.03-.35-.25-.35-.54-.21.19.06.37.13.56.19.16.22.38.22.61.16-.22.01-.36-.39-.63-.14zm25.53-21.14c-.46-.3-.94-.26-1.42-.01h1.43c.04.04.08.11.13.12.76.18 1.52.36 2.29.52.34.07.69.09 1.04.14.3.04.61.08.91.15.34.07.67.19 1.01.25.1.02.23-.07.44-.15-.76-.19-1.39-.34-2.02-.49-.13-.03-.26-.03-.39-.04-.37-.03-.74-.03-1.1-.1-.6-.11-1.19-.28-1.79-.4-.18-.05-.36 0-.53.01zm-12.17 24.06c0-.07.01-.14.01-.21-2.09-.23-4.21-.24-6.27-.74-2.06-.5-4.08-1.11-6.1-1.83-.08.33.09.42.3.44.9.1 1.67.61 2.56.76 1.27.22 2.5.63 3.75.95.44.11.88.24 1.33.29 1.27.14 2.53.25 3.8.36.2.02.41-.01.62-.02zm10.33-2.29c.01-.81.71-1.34.55-2.14-.02-.07.09-.17.14-.26.17-.3.16-.32-.3-.48-.04.24-.11.47-.11.71-.01.49-.1.95-.42 1.34-.22.27-.15.51.14.83zm2.68-23.09c.15.16.24.33.37.38.2.07.44.31.64.04.23-.3-.13-.38-.24-.56-.02-.03-.04-.07-.07-.11-.21.07-.42.15-.7.25zm9.58-.76c.13-.75-.27-1.31-.67-1.87.07.68.6 1.19.67 1.87zm-37.37 23.6c.27.45.73.52 1.22.51-.41-.17-.81-.34-1.22-.51zm.34-.92c-.37-.15-.73-.31-1.1-.46.24.5.7.41 1.1.46zm8.67-14.4c-.12.5-.12.5.36.56.07-.29-.07-.43-.36-.56zm-.08 18.71v.15h.99c-.32-.18-.64-.26-.99-.15zm9.01-6.37c-.04.04-.08.07-.12.11l.61.7c.04-.03.07-.06.11-.09-.2-.25-.4-.49-.6-.72zm14.53-5.52c.2.41.2.41.64.39-.24-.15-.44-.27-.64-.39zm-2.28-13.84c-.01.04-.03.08-.04.12.21.06.36.33.66.06-.21-.07-.42-.12-.62-.18zm8.9 24.35c.4-.18.4-.18.44-.6-.17.23-.31.41-.44.6zm-29.56-13.93c-.23-.25-.23-.25-.36 0h.36zm-2.85-5.64c-.02.06-.05.12-.07.17l.48.15c.01-.03.03-.07.04-.1-.15-.07-.3-.15-.45-.22zm-9.11 5.45c.04 0 .09-.01.13-.01 0-.2.08-.43-.3-.59.08.26.12.43.17.6zm-.38-.91c.05-.02.09-.03.14-.05l-.12-.3c-.03.01-.07.02-.1.04.02.1.05.2.08.31zm2.81-8.58-.1-.07c-.08.12-.17.24-.25.36l.1.07c.08-.12.17-.24.25-.36zm12.9-.09c.01.03.03.06.04.09.07-.01.16-.01.21-.05.06-.05.1-.14.15-.21-.02-.02-.05-.04-.07-.06-.11.07-.22.15-.33.23zM233.19 29.66c.11-.21.22-.43.36-.71.33.09.64.18 1.01.28-.06 1.79-.22 3.54-.16 5.28.06 1.71.09 3.42.35 5.06-.43.25-.78.46-1.12.67 0 .03.01.05.01.08.14-.02.28-.04.45-.06.03.44-.25.49-.52.49-1.17.02-2.34.03-3.51.04-.07 0-.14-.05-.2-.03-.67.28-1.38.14-2.07.16-.67.01-1.34.06-2.01.08-1.35.04-2.7.08-4.04.1-1.08.02-2.16-.02-3.25.01-1.12.03-2.23.14-3.35.16-1.73.03-3.46 0-5.19.01-.31 0-.67-.1-.9.29-.06.11-.33.11-.57.17.03-.14.05-.25.08-.41-.15-.01-.32-.01-.48-.02-.58-.02-1.16-.05-1.74-.07-.49-.02-.99-.11-1.39.39-.26-.36-.55-.35-.96-.33-.49.02-1.06.35-1.53-.12-.05-.05-.17-.04-.26-.04-.74 0-1.49-.05-2.22.03-.67.07-1.32.29-2.01.45-.33-.55-.76-.63-1.3-.29-.13.08-.41.12-.51.04-.36-.29-.78-.2-1.17-.24-.41-.04-.8-.06-1.08-.43-.07-.09-.23-.11-.42-.2-.08.23-.15.43-.23.67-.27.18-.5.11-.67-.33-.05.2-.08.32-.1.43-.04.02-.08.05-.12.05-.26-.03-.61.03-.76-.12-.22-.21-.36-.56-.4-.87-.07-.55-.04-1.12-.04-1.68 0-1.11-.02-2.23.03-3.34.05-1.28-.03-2.54-.16-3.81-.02-.24.09-.49.09-.73.01-.32.19-.65-.1-.96-.07-.07-.01-.3.03-.45.22-.7 0-1.41.04-2.12.01-.15 0-.3.01-.45.01-.29.05-.58.03-.87-.08-.92-.22-1.83-.27-2.74-.07-1.26-.09-2.52-.12-3.78-.02-.98-.03-1.96-.04-2.95 0-.34.04-.67.05-1.01.02-.38.11-.75-.16-1.1-.09-.11-.03-.34-.03-.51.01-.24.06-.49.05-.73-.02-1.18-.02-2.36-.11-3.54-.04-.52.16-1.05-.05-1.59-.07-.18.2-.49.31-.75-.02-1.26-.05-2.55-.08-3.88.51-.16.66-.82 1.29-.86.1.17.19.34.28.5.19.02.39.05.63.08 0-.1.02-.21-.01-.3-.1-.28.16-.45.28-.42.41.1.63-.17.91-.35.04-.03.13.01.19.01.03.29.05.59.09.96.16-.11.24-.17.34-.24l.22.39c.06-.32.09-.53.13-.77.1.05.2.1.39.19.04-.29.08-.55.13-.92.12.17.19.25.24.34.22.37.34.83.93.82.17 0 .35.25.53.39.62-.47.18-1.17.37-1.8.17.21.3.38.43.55.04-.09.08-.18.14-.32.19.33.37.63.52.9.52.06.45-.39.67-.67.23.03.49.06.75.09.03.18.05.33.09.58.17-.23.29-.39.44-.58.39.41.66-.05 1.03-.2l.24.48c.04-.01.07-.03.11-.04-.1-.35-.2-.7-.3-1.08.17-.06.3-.11.47-.17-.21.75.08 1.33.56 1.75.24.21.05.49.29.66.48-.31.29-1.11.97-1.28.07.12.15.24.21.35.44-.09 1.19-.65 1.19-.65.36.23.8.72.54 1.34.25.02.45.03.7.05-.08-.31-.23-.6-.19-.86.03-.26.26-.49.41-.76.54.3.93.74 1.09 1.38l.43-.23c.52-.27.54-.37.31-1-.12-.34.02-.66.37-.93.14.13.36.23.41.39.29.96 1.12 1.58 1.56 2.46.1.2.47.27.73.41.06-.47.11-.89.17-1.32-.18-.06-.37-.12-.56-.18 0-.05 0-.1.01-.15.15-.04.3-.07.5-.12.41.87.82 1.72 1.21 2.57.05.12.11.27.08.39-.25.96-.15 1.95-.24 2.93-.05.57.07 1.15-.26 1.68-.03.05-.02.15.01.19.24.37.07.79.19 1.19.1.33 0 .71 0 1.07 0 .18 0 .35.02.53.02.15.08.31.08.46-.03 1.12-.08 2.24-.12 3.36 0 .13.02.28-.01.4-.23.98-.08 1.96.05 2.93.03.19 0 .4-.01.59-.02.89-.03 1.78-.06 2.67-.01.36-.08.71-.1 1.06-.04.64-.16 1.26-.08 1.92.1.87.06 1.75.07 2.63.01.69.03 1.39.04 2.14.25 0 .46 0 .68-.02 1.28-.12 2.56-.15 3.84-.06 2.02.15 4.03.34 6.05.48.67.05 1.35.03 2.03.02 1.12-.02 2.25-.04 3.37-.07.31-.01.64 0 .94-.07.21-.04.4-.18.57-.31.56-.44.8-1.13 1.2-1.69.13-.18.25-.37.41-.6.13.12.23.21.34.32.1-.07.23-.15.43-.28.11.39.2.74.3 1.09.14-.05.19-.06.24-.07zm-21.85 1.12c.03-.29.09-.53.08-.76-.02-.48-.09-.96.13-1.42.03-.06-.07-.16-.08-.25-.02-.15-.04-.31-.02-.47.03-.3.09-.6.13-.91.03-.24.05-.49.07-.73.02-.22.05-.45.03-.67-.05-.78-.12-1.57-.17-2.35-.02-.34-.02-.67-.02-1.01 0-.77.24-1.53.09-2.32-.07-.36-.14-.83.03-1.1.34-.55.15-1.11.19-1.65.05-.7-.35-1.4-.06-2.12-.38-.62.08-1.27-.04-1.9-.06-.31-.04-.65-.01-.98.08-.75.17-1.49.08-2.24-.05-.44-.22-.93-.08-1.31.23-.62.15-1.18.05-1.78a.495.495 0 0 1 0-.27c.15-.53-.23-.87-.42-1.3-.05.59-.04 1.16-.03 1.74 0 .41.1.86-.03 1.23-.23.66-.32 1.3-.18 1.98.16.74-.09 1.53.29 2.24.02.05-.02.13-.03.19-.05.52-.3 1.04-.04 1.57.03.05.01.14-.01.2-.2.45-.2.9-.12 1.38.03.19-.05.4-.07.6-.05.47-.15.94-.13 1.4.01.6.12 1.2.18 1.8.02.18.04.37 0 .54-.23.85-.2 1.73-.14 2.58.05.6-.02 1.15-.15 1.72-.07.29-.12.65-.01.91.13.29.12.55.1.84-.02.2-.03.4-.01.6.1.98.15 1.96 0 2.95-.05.34 0 .7.01 1.07h.39zm-2.5-18.65c-.01-.37-.01-.74-.02-1.1-.02-.47-.12-.52-.66-.37.04.55.2 1.05.68 1.47zm-1.95 8.47c.05 0 .1-.01.16-.01-.02-.83-.03-1.65-.05-2.51-.33.2-.34.23-.32.45.04.44.07.88.11 1.32.03.25.07.5.1.75zm1.65-3.48c.41-.68.05-1.3.19-1.92-.6.34-.63.61-.19 1.92zm.07 1.09c-.37.56-.37.56.02 1.25 0-.47-.01-.8-.02-1.25zm-1.67 20.91c.3.15.56.19.69.04.07-.08.05-.25.09-.47-.32.18-.54.3-.78.43zm23.58-.55c.5.28.63.29 1.13.07-.45-.03-.79-.05-1.13-.07zm-2.89.13c-.2-.17-.28-.26-.38-.32-.03-.02-.11.03-.2.05.05.09.08.2.14.23.09.04.2.02.44.04zm-6.55.19c.25.11.5.18.75-.01-.25 0-.5.01-.75.01zM202.55 3.38c-.02.03-.05.06-.07.09.07.08.14.17.22.25.05-.06.1-.13.15-.19-.11-.05-.21-.1-.3-.15z"></path>
      <path fill="#860035" d="M234.38 7.24c.11-.91.05-.88-.29-1.25-.48-.53-.21-1.18-.76-1.57-.26-.38-.55-.75-.8-1.13-.1-.15-.2-.32-.35-.4-.73-.43-1.35-1-2.09-1.43-1.07-.63-2.18-.76-3.34-.79-.38-.06-.74-.02-1.08.07-.19-.08-.41-.09-.61-.08-.59.05-1.11.4-1.6.7-.36.22-.37.36-.96.59-.17.07-.66.82-.73.98-.3.24-.12.29-.4.57-.33.34-.51.5-.76.87-.14.03-.4.8-.51.9-.19.17-.25.42-.32.65-.29.95-.81 1.61-.37 2.58.02.16.06.33.13.49.04.09.02.22.01.33-.04.37.06.7.22 1.03.16.32.26.66.38.99.27.75.9 1.26 1.36 1.88.4.52.94.94 1.41 1.4.39.38.53.85.33 1.36-.14.37-.36.71-.55 1.06-.1.18-.2.4.02.54.15.09.38.12.56.09.22-.04.42-.16.62-.25 1.81-.75 3.73-1.29 5.39-2.38.49-.32.16-.28.66-.57.4-.09 1.24-.32 1.41-.43.42-.27.68-.37.98-.76.16-.21.3-.43.42-.66.15-.31.27-.49.54-.72.73-.62 1.01-1.69 1-2.64.03-.17.05-.33.06-.5.02-.4.02-.8-.02-1.19.05-.02.04-.28.04-.33zm-12.72 1.21c-.08-.22-.13-.49-.07-.69.11-.41.01-1.3.2-1.68.27-.56.65-.69.95-1.23.09-.17.22-.32.35-.47-.04.06-.08.11-.11.17-.47.79-.77.95-1.14 1.79-.18.41-.19 1.77-.18 2.11zm1.52 4.05c-.13-.17-.25-.36-.37-.54-.01-.01-.02-.03-.03-.04-.18-.39-.35-.77-.5-1.16.12.19.25.37.41.53.07.07.14.17.19.26.31.64.69 1.25 1.02 1.89-.24-.32-.48-.62-.72-.94zm1.04 2.95-.15-.75.02.02c.1.14.17.31.21.49.01.18-.05.27-.08.24zm-.73-11.5c.28-.35.66-.54 1.05-.69-.36.21-.72.44-1.05.69zm3.39.11c-.15.04-.32.05-.48.07.18-.07.37-.15.55-.12.02 0 .03.01.04.01-.04.01-.07.03-.11.04zm.57.01c.04-.05.07-.1.04-.16.01 0 .02.01.03.01l.78.24c0 .02.01.03.01.05-.26-.06-.52-.11-.8-.14h-.06zm3.42 8.78c-.2.28-.41.54-.64.79-.13.09-.27.17-.4.26-.72.43-1.47.85-2.24 1.23.09-.08.18-.17.26-.26.06-.07.13-.14.21-.17.95-.35 1.7-1.02 2.75-1.83.09-.1.2-.24.32-.39-.09.12-.18.25-.26.37zm.51-.75c.13-.17.26-.33.38-.5 0 .11 0 .23.01.37-.25-.07-.18.14-.39.13zm.71-.83c-.12.14-.22.17-.23.12.15-.21.29-.42.44-.63v.02a1.4 1.4 0 0 1-.21.49zM285.32 2.07c.32 0 .63-.01.63-.37 0-.29-.24-.36-.5-.36h-.48v.73h.35zm-.34 1.16h-.26V1.12h.81c.48 0 .69.21.69.58s-.24.54-.53.59l.63.94H286l-.59-.94h-.44v.94zm-1.14-1.05c0 .87.66 1.56 1.54 1.56s1.54-.69 1.54-1.56c0-.87-.66-1.56-1.54-1.56-.88-.01-1.54.68-1.54 1.56m3.36 0c0 1.02-.79 1.82-1.82 1.82s-1.82-.8-1.82-1.82.79-1.82 1.82-1.82c1.03-.01 1.82.79 1.82 1.82"></path>
    </g>
  </switch>
</svg>