<svg class="svg__major-marks" id="Group_201374" data-name="Group 201374" xmlns="http://www.w3.org/2000/svg" viewBox="0 0 801 194.036"> <rect id="Rectangle_8433" data-name="Rectangle 8433" width="801" height="122"></rect> <g id="Clearance_Headline" data-name="Clearance Headline" transform="translate(-22.234 45.398)"> <g id="Major_Markdowns_HEX" data-name="Major Markdowns HEX" transform="translate(163.55 -21)"> <g id="Major_Red" transform="translate(5.78 0)"> <path id="Path_3290" data-name="Path 3290" d="M15.7,7.4H33.763L63.18,53.074,92.6,7.4H110.66v96.612H93.681V34.753L63.18,80.323h-.568L32.37,35.011v69H15.7Z" transform="translate(-15.7 -5.749)" fill="#bd0f1b"></path> <path id="Path_3291" data-name="Path 3291" d="M273.774,6h15.741l42.526,97.334h-17.96l-9.806-23.327H258.6l-9.909,23.327H231.3Zm24.308,58.989L281.361,26.334,264.794,64.989Z" transform="translate(-119.025 -5.071)" fill="#bd0f1b"></path> <path id="Path_3292" data-name="Path 3292" d="M444.2,89.819l11.2-11.612c5.677,7.328,11.3,11.457,19.457,11.457,9.135,0,15.328-6.09,15.328-19.044V7.4H507.73V71.188c0,11.457-3.458,20.024-9.135,25.7s-13.78,8.567-23.482,8.567C460.2,105.405,450.548,98.49,444.2,89.819Z" transform="translate(-221.224 -5.749)" fill="#bd0f1b"></path> <path id="Path_3293" data-name="Path 3293" d="M605.7,54.415v-.258c0-27.2,21-49.957,50.68-49.957s50.37,22.5,50.37,49.7v.258c0,27.2-21,49.957-50.68,49.957S605.7,81.613,605.7,54.415Zm83.245,0v-.258c0-18.786-13.676-34.371-32.875-34.371S623.505,35.114,623.505,53.9v.258c0,18.786,13.676,34.217,32.875,34.217S688.945,73.2,688.945,54.415Z" transform="translate(-298.453 -4.2)" fill="#bd0f1b"></path> <path id="Path_3294" data-name="Path 3294" d="M843,7.4h43.093c12.128,0,21.676,3.613,27.869,9.651,5.109,5.264,8,12.438,8,20.85v.258c0,15.9-9.548,25.392-22.914,29.262l26.114,36.591H904.982l-23.74-33.7H859.979v33.7H843Zm41.8,47.893c12.128,0,19.869-6.348,19.869-16.154v-.258c0-10.373-7.432-16-20.024-16H859.928V55.345H884.8Z" transform="translate(-412.348 -5.749)" fill="#bd0f1b"></path> </g> <g id="Major_White" transform="translate(2.013 4.696)"> <path id="Path_3295" data-name="Path 3295" d="M8.4,16.5H26.463L55.88,62.174,85.3,16.5H103.36v96.612H86.381V43.8L55.88,89.372h-.568L25.121,44.111v69H8.4Z" transform="translate(-8.4 -14.849)" fill="#fff"></path> <path id="Path_3296" data-name="Path 3296" d="M266.526,15.1h15.741l42.526,97.334h-17.96l-9.806-23.327H251.353l-9.961,23.327H224Zm24.308,58.937L274.112,35.382,257.546,74.037Z" transform="translate(-111.725 -14.171)" fill="#fff"></path> <path id="Path_3297" data-name="Path 3297" d="M436.9,98.919l11.2-11.612c5.677,7.328,11.3,11.457,19.457,11.457,9.135,0,15.328-6.09,15.328-19.044V16.5H500.43V80.237c0,11.457-3.458,20.024-9.135,25.7s-13.78,8.567-23.482,8.567C452.9,114.505,443.248,107.59,436.9,98.919Z" transform="translate(-213.924 -14.849)" fill="#fff"></path> <path id="Path_3298" data-name="Path 3298" d="M598.5,63.515v-.258c0-27.2,21-49.957,50.68-49.957S699.55,35.8,699.55,63v.258c0,27.2-21,49.957-50.68,49.957S598.5,90.713,598.5,63.515Zm83.245,0v-.258c0-18.786-13.676-34.371-32.875-34.371s-32.565,15.328-32.565,34.062v.258c0,18.786,13.676,34.217,32.875,34.217C668.327,97.474,681.745,82.3,681.745,63.515Z" transform="translate(-291.201 -13.3)" fill="#fff"></path> <path id="Path_3299" data-name="Path 3299" d="M835.7,16.5h43.093c12.128,0,21.676,3.613,27.869,9.651,5.109,5.264,8,12.438,8,20.85v.258c0,15.9-9.548,25.392-22.914,29.262l26.114,36.591H897.682l-23.74-33.7H852.679v33.7H835.7Zm41.855,47.893c12.128,0,19.869-6.348,19.869-16.154v-.258c0-10.373-7.432-16-20.024-16H852.679V64.445h24.876Z" transform="translate(-405.048 -14.849)" fill="#fff"></path> </g> <g id="Mark_Black_00000034058371929389407570000018367389616508073660_" transform="translate(0 117.152)"> <g id="Group_9342" data-name="Group 9342" transform="translate(0 0.826)"> <path id="Path_3300" data-name="Path 3300" d="M43.313,283.638V254.273L31.082,272.852H30L17.87,254.479v29.159H6V234.3H18.541l12.128,19.508L42.8,234.3H55.338v49.338Z" transform="translate(-5.226 -233.526)"></path> <path id="Path_3301" data-name="Path 3301" d="M53.838,234.348v47.738H43.361v-31.12L29.943,271.352h-.258L16.37,251.173v30.965H6.048V234.4h11.3l12.593,20.179L42.484,234.4H53.838m1.548-1.6H41.607l-.464.723L29.892,251.586,18.641,233.523l-.464-.723H4.5v50.835H17.918V256.282l10.477,15.9.464.671h1.91l.464-.671,10.58-16.05v27.559H55.335V232.8Z" transform="translate(-4.5 -232.8)" fill="#fff"></path> </g> <g id="Group_9343" data-name="Group 9343" transform="translate(57.389 0.516)"> <path id="Path_3302" data-name="Path 3302" d="M158.306,283.348l-4.387-10.735H134.773l-4.387,10.735H118L139.108,233.7h10.735l21.108,49.648Zm-8.773-21.572-5.212-12.7-5.161,12.7Z" transform="translate(-116.813 -232.926)"></path> <path id="Path_3303" data-name="Path 3303" d="M148.214,233.748l20.489,48.1H157.71l-4.387-10.735H133.144l-4.387,10.735H118.022l20.489-48.1h9.7m-11.3,28.075h12.7l-6.348-15.483-6.348,15.483M149.246,232.2H137.531l-.413.929-20.489,48.1L115.7,283.4h14.089l.413-.981,3.974-9.754h18.115l3.974,9.754.413.981h14.347l-.929-2.168-20.437-48.1-.413-.929Zm-10.012,28.075,4.025-9.857,4.025,9.857Z" transform="translate(-115.7 -232.2)" fill="#fff"></path> </g> <g id="Group_9344" data-name="Group 9344" transform="translate(120.205 0.826)"> <path id="Path_3304" data-name="Path 3304" d="M266.465,283.686,256.247,268.41h-7.07v15.276H237.1V234.4h22.6c6.142,0,11.148,1.755,14.451,5.058a15.778,15.778,0,0,1,4.335,11.457v.155c0,7.122-3.458,12.489-9.806,15.173l11.973,17.444Zm-7.432-26.114c4.542,0,7.277-2.219,7.277-5.987v-.155c0-5.264-4.7-6.038-7.483-6.038h-9.651v12.18Z" transform="translate(-236.326 -233.574)"></path> <path id="Path_3305" data-name="Path 3305" d="M258.979,234.348c6.09,0,10.786,1.7,13.934,4.851,2.684,2.684,4.077,6.4,4.077,10.941v.155c0,7.69-4.18,12.541-10.219,14.812l11.664,17.031H266.152l-10.219-15.276h-8.257v15.276H237.148V234.4h21.83m-11.3,23.172h10.631c5.109,0,8.051-2.735,8.051-6.761v-.155c0-4.49-3.148-6.812-8.257-6.812H247.676v13.728m11.3-24.772H235.6v50.835h13.625V268.358h5.883l9.754,14.605.464.671h16.05l-1.651-2.426-10.58-15.483c6.09-2.942,9.444-8.361,9.444-15.483v-.155c0-4.9-1.548-9.032-4.542-12.025-3.509-3.406-8.67-5.264-15.07-5.264Zm-9.754,12.593H258.1c4.438,0,6.709,1.755,6.709,5.264v.155c0,3.251-2.426,5.212-6.5,5.212h-9.083V245.393Z" transform="translate(-235.6 -232.8)" fill="#fff"></path> </g> <g id="Group_9345" data-name="Group 9345" transform="translate(173.735 0.826)"> <path id="Path_3306" data-name="Path 3306" d="M371.223,283.638l-14.5-19.921-4.7,4.851v15.07H340V234.3h12.025v19.715l18.27-19.715h14.863l-20.231,21.108,20.85,28.23Z" transform="translate(-339.226 -233.526)"></path> <path id="Path_3307" data-name="Path 3307" d="M382.626,234.348l-19.457,20.282L383.5,282.138H370.859L356.1,261.8l-5.522,5.729v14.605H340.048V234.4h10.528v20.9l19.353-20.9h12.7m3.613-1.6H369.259l-.464.516-16.67,18.012V232.852H338.5v50.835h13.625V268.152l3.819-3.974,13.728,18.837.464.619H386.6l-1.806-2.477-19.56-26.424,18.528-19.3,2.477-2.632Z" transform="translate(-338.5 -232.8)" fill="#fff"></path> </g> <g id="Group_9346" data-name="Group 9346" transform="translate(227.516 0.826)"> <path id="Path_3308" data-name="Path 3308" d="M443.4,283.686V234.4h19.4c15.173,0,26.166,10.322,26.166,24.514v.155c0,14.3-10.993,24.669-26.166,24.669H443.4Zm19.4-11.044c8.154,0,13.625-5.419,13.625-13.47v-.155c0-8.154-5.471-13.625-13.625-13.625h-7.328v27.249Z" transform="translate(-442.626 -233.574)"></path> <path id="Path_3309" data-name="Path 3309" d="M462.079,234.348c15.018,0,25.391,10.322,25.391,23.74v.155c0,13.418-10.373,23.895-25.391,23.895H443.448V234.4h18.631m-8.154,38.242h8.154c8.619,0,14.4-5.78,14.4-14.244v-.155c0-8.464-5.78-14.4-14.4-14.4h-8.1v28.8m8.1-39.842H441.9v50.835h20.179a27.686,27.686,0,0,0,19.4-7.328,24.807,24.807,0,0,0,7.535-18.115v-.155a24.49,24.49,0,0,0-7.535-18.011,28.077,28.077,0,0,0-19.4-7.225Zm-6.606,12.593h6.606c7.69,0,12.851,5.161,12.851,12.851v.155c0,7.587-5.161,12.7-12.851,12.7h-6.554v-25.7Z" transform="translate(-441.9 -232.8)" fill="#fff"></path> </g> <g id="Group_9347" data-name="Group 9347" transform="translate(282.268)"> <path id="Path_3310" data-name="Path 3310" d="M574.762,283.69c-14.863,0-26.062-10.889-26.062-25.34v-.155c0-14.3,11.509-25.495,26.217-25.495,14.863,0,26.062,10.889,26.062,25.34v.155C600.98,272.49,589.471,283.69,574.762,283.69Zm0-39.739c-7.741,0-13.573,6.038-13.573,14.089v.155c0,8.1,5.883,14.244,13.676,14.244,7.741,0,13.573-6.038,13.573-14.089v-.155C588.439,250.092,582.555,243.951,574.762,243.951Z" transform="translate(-547.874 -231.926)"></path> <path id="Path_3311" data-name="Path 3311" d="M574.091,232.748c14.76,0,25.288,10.993,25.288,24.566v.155c0,13.573-10.735,24.721-25.443,24.721-14.76,0-25.288-10.993-25.288-24.566v-.155c0-13.573,10.735-24.721,25.443-24.721m0,39.739c8.464,0,14.347-6.709,14.347-14.863v-.155c0-8.206-5.987-15.018-14.451-15.018s-14.347,6.709-14.347,14.863v.155c0,8.206,5.987,15.018,14.451,15.018m0-41.287a27.309,27.309,0,0,0-19.353,7.69,25.774,25.774,0,0,0-7.638,18.528v.155a25.731,25.731,0,0,0,7.586,18.476,28.138,28.138,0,0,0,38.6-.052,25.774,25.774,0,0,0,7.638-18.528v-.155a25.731,25.731,0,0,0-7.586-18.476,27.062,27.062,0,0,0-19.25-7.638Zm0,39.739c-7.38,0-12.9-5.78-12.9-13.47v-.155c0-7.586,5.471-13.315,12.8-13.315,7.38,0,12.9,5.78,12.9,13.47v.155c0,7.586-5.522,13.315-12.8,13.315Z" transform="translate(-547.1 -231.2)" fill="#fff"></path> </g> <g id="Group_9348" data-name="Group 9348" transform="translate(339.581 0.723)"> <path id="Path_3312" data-name="Path 3312" d="M706.632,283.851l-10.219-29.623-10.27,29.623H675.924L659.1,234.2H672l9.341,30.552L691.459,234.1h10.115l10.167,30.656,9.341-30.552h12.644L716.85,283.851Z" transform="translate(-658.016 -233.326)"></path> <path id="Path_3313" data-name="Path 3313" d="M700.042,234.148l10.735,32.462,9.909-32.359h10.993l-16.36,48.1h-9.135L695.4,251.128l-10.786,31.223h-9.135l-16.308-48.1h11.251l9.909,32.359,10.735-32.462h8.98m1.084-1.548h-11.3l-.361,1.084-9.186,27.869-8.412-27.714-.31-1.084H657l.671,2.064,16.308,48.1.361,1.032h11.354l.361-1.032,9.341-26.991,9.341,26.991.361,1.032h11.354l.361-1.032,16.308-48.1.671-2.064H719.5l-.31,1.084L710.673,261.5l-9.187-27.869-.361-1.032Z" transform="translate(-657 -232.6)" fill="#fff"></path> </g> <g id="Group_9349" data-name="Group 9349" transform="translate(424.15 0.826)"> <path id="Path_3314" data-name="Path 3314" d="M854.607,283.638l-21.985-28.849v28.849H820.7V234.3h10.838l21.211,27.92V234.3h11.922v49.338Z" transform="translate(-819.926 -233.526)"></path> <path id="Path_3315" data-name="Path 3315" d="M863.171,234.348v47.738h-8.928L831.122,251.74v30.346H820.748V234.348h9.7l22.4,29.417V234.348h10.322m1.548-1.548h-13.47v26.372l-19.611-25.753-.464-.619H819.2v50.835h13.47v-27.3L853,283.067l.464.619h11.251V232.8Z" transform="translate(-819.2 -232.8)" fill="#fff"></path> </g> <g id="Group_9350" data-name="Group 9350" transform="translate(477.823 0.155)"> <path id="Path_3316" data-name="Path 3316" d="M946.666,283.631a31.185,31.185,0,0,1-20.8-7.845l-.568-.516,7.174-8.619.619.465c4.645,3.819,9.031,5.625,13.78,5.625,3.819,0,6.141-1.393,6.141-3.716v-.155c0-1.858-.619-3.148-9.031-5.316-9.29-2.374-16.412-5.006-16.412-15.328v-.155c0-8.928,7.174-15.173,17.5-15.173a28.465,28.465,0,0,1,18.218,6.245l.568.465-6.3,9.135-.619-.464c-4.438-3.1-8.361-4.593-11.973-4.593-3.251,0-5.367,1.342-5.367,3.406v.155c0,2.374,1.187,3.355,9.7,5.522,9.444,2.477,15.741,5.987,15.741,15.07v.155C964.987,277.49,957.762,283.631,946.666,283.631Z" transform="translate(-924.216 -232.177)"></path> <path id="Path_3317" data-name="Path 3317" d="M944,233.048a27.511,27.511,0,0,1,17.753,6.09l-5.471,7.9c-4.232-2.942-8.412-4.7-12.438-4.7s-6.141,1.858-6.141,4.18v.155c0,3.148,2.064,4.18,10.322,6.3,9.7,2.529,15.121,5.987,15.121,14.347v.155c0,9.5-7.225,14.812-17.547,14.812a30.482,30.482,0,0,1-20.282-7.638l6.193-7.432c4.284,3.561,8.825,5.78,14.244,5.78,4.283,0,6.916-1.7,6.916-4.49v-.155c0-2.684-1.651-4.026-9.6-6.09-9.6-2.477-15.844-5.109-15.844-14.605V247.5c.052-8.722,7.019-14.451,16.773-14.451m0-1.548c-10.735,0-18.27,6.554-18.27,15.947v.155c0,10.889,7.69,13.728,16.979,16.1,8.464,2.168,8.464,3.355,8.464,4.593v.155c0,.671-.361,2.942-5.367,2.942-4.593,0-8.722-1.7-13.264-5.471l-1.187-.981-.981,1.187-6.193,7.432L923.2,274.7l1.135.981a31.981,31.981,0,0,0,21.314,8.051c11.612,0,19.1-6.4,19.1-16.36v-.155c0-10.167-7.844-13.625-16.308-15.844-8.773-2.271-9.135-3.1-9.135-4.8v-.155c0-1.6,1.806-2.632,4.593-2.632,3.458,0,7.225,1.445,11.56,4.438l1.29.877.877-1.29,5.47-7.9.826-1.187-1.135-.877A29.827,29.827,0,0,0,944,231.5Z" transform="translate(-923.2 -231.5)" fill="#fff"></path> </g> </g> </g> </g> </svg>