<svg class="svg-return-drop" xmlns="http://www.w3.org/2000/svg" viewBox="0 0 146.594 208.457"> <g id="Return_Drop_VT_HEX-R" data-name="Return Drop VT HEX-R" transform="translate(0.012 -0.035)"> <path id="Path_477315" data-name="Path 477315" d="M96.219,193.661c-3.2,0-5.833-2.634-5.833-6.68v-.094c0-3.952,2.634-6.68,5.833-6.68s5.927,2.634,5.927,6.68v.094c0,4.046-2.728,6.68-5.927,6.68M83.612,206.174H90.48V195.825a9.1,9.1,0,0,0,7.527,3.575c5.739,0,10.914-4.422,10.914-12.419v-.094c0-8-5.363-12.419-10.914-12.419a8.9,8.9,0,0,0-7.527,3.952v-3.481H83.612ZM66.207,193.661a6.39,6.39,0,0,1-6.3-6.68v-.094c0-3.575,2.352-6.586,6.21-6.586a6.39,6.39,0,0,1,6.3,6.68v.094c0,3.575-2.352,6.586-6.21,6.586m-.094,5.833c7.527,0,13.078-5.645,13.078-12.513v-.094c0-6.962-5.551-12.419-12.984-12.419-7.527,0-13.078,5.645-13.078,12.513v.094c0,6.962,5.457,12.419,12.984,12.419m-29.542-.47h6.868v-8.938c0-5.739,2.823-8.468,7.339-8.468h.376v-7.15c-4.046-.188-6.3,1.976-7.715,5.269v-4.892H36.57ZM14.931,173.81a9.088,9.088,0,0,1,9.5,9.5v.094c0,5.551-3.857,9.408-9.5,9.408H9.568V173.9h5.363ZM2.7,199.024H14.931c9.879,0,16.747-6.868,16.747-15.712v-.094c0-8.844-6.868-15.618-16.747-15.618H2.7v31.424Z" transform="translate(-0.16 -9.913)" fill="#fff"></path> <path id="Path_477316" data-name="Path 477316" d="M124.633,159.224H131.5V145.77c0-3.2,1.694-4.892,4.234-4.892,2.634,0,4.14,1.694,4.14,4.892v13.454h6.868V143.606c0-5.551-3.011-8.938-8.185-8.938-3.481,0-5.457,1.882-7.056,3.857v-3.387h-6.868Zm-18.346,0h6.868v-8.938c0-5.739,2.823-8.468,7.339-8.468h.376v-7.15c-4.046-.188-6.3,1.976-7.715,5.269v-4.892h-6.868Zm-19.475.47c3.481,0,5.457-1.882,7.056-3.857v3.387h6.868V135.139H93.867v13.454c0,3.2-1.694,4.892-4.234,4.892-2.634,0-4.14-1.694-4.14-4.892V135.139H78.626v15.618c0,5.457,3.011,8.938,8.185,8.938M68.747,159.6a10.04,10.04,0,0,0,5.363-1.411v-5.457a6.7,6.7,0,0,1-3.387.847c-1.505,0-2.164-.753-2.164-2.352V140.972H74.2v-5.833H68.559v-6.21H61.691v6.115H58.774v5.833h2.917v11.384c0,5.645,2.823,7.339,7.056,7.339M39.016,145.3c.565-3.1,2.352-5.081,5.175-5.081,2.917,0,4.7,2.07,5.081,5.081Zm5.927,14.395a12.092,12.092,0,0,0,9.879-4.516L50.871,151.7a7.759,7.759,0,0,1-5.833,2.446,5.7,5.7,0,0,1-5.927-4.7H55.857c0-.659.094-1.223.094-1.788,0-6.868-3.669-13.078-11.76-13.078-6.962,0-11.949,5.645-11.949,12.513v.094c.094,7.527,5.457,12.513,12.7,12.513M9.568,143.042V134.01h6.868c3.387,0,5.457,1.505,5.457,4.516v.094c0,2.634-1.976,4.422-5.269,4.422ZM2.7,159.224H9.568V149.157h5.457L21.8,159.224H29.89l-7.715-11.2a9.912,9.912,0,0,0,6.774-9.785v-.094A9.5,9.5,0,0,0,26.221,131c-2.07-2.07-5.175-3.2-9.126-3.2H2.7Z" transform="translate(-0.16 -7.559)" fill="#fff"></path> <path id="Path_477317" data-name="Path 477317" d="M59.9,106.446c.47-4.516,3.481-7.9,7.527-7.9,4.61,0,7.056,3.669,7.433,7.9ZM67.988,119.9a12.222,12.222,0,0,0,9.6-4.328L75.42,113.6a9.637,9.637,0,0,1-7.339,3.293c-4.14,0-7.715-2.823-8.185-7.9h18.44v-1.129c0-6.774-3.952-12.231-10.82-12.231-6.4,0-11.1,5.363-11.1,12.043v.094c0,7.244,5.175,12.137,11.572,12.137m-37.445-.564h3.481V106.069c0-4.328,3.011-7.244,6.962-7.244,4.046,0,6.4,2.728,6.4,6.962v13.548h3.481V104.94c0-5.551-3.293-9.314-8.938-9.314a8.948,8.948,0,0,0-8,4.516V86.5H30.448v32.835Zm-19,0h3.575V91.2H25.65V87.911H1V91.2H11.537Z" transform="translate(-0.06 -5.115)" fill="#fff"></path> <path id="Path_477318" data-name="Path 477318" d="M7.492,216.986a1.114,1.114,0,0,1-1.129-1.223,2.039,2.039,0,0,1,.47-1.317,1.208,1.208,0,0,1,.941-.376A1.087,1.087,0,0,1,8.9,215.2a1.579,1.579,0,0,1-.565,1.317.988.988,0,0,1-.847.47m.47,3.952a6.079,6.079,0,0,0,3.2-.941l-.282-.376a5.372,5.372,0,0,1-3.011.847,4.8,4.8,0,1,1-.094-9.6,4.619,4.619,0,0,1,4.8,4.328c0,1.6-.659,2.446-1.505,2.446-.565,0-.847-.282-.847-.753v-.376l.565-3.293-1.411-.188-.094.659a2,2,0,0,0-1.694-.847,2.924,2.924,0,0,0-2.728,3.011,2.2,2.2,0,0,0,2.258,2.352,2.622,2.622,0,0,0,1.788-.753,2.211,2.211,0,0,0,1.882.753c1.317,0,2.446-1.035,2.446-3.011a5.185,5.185,0,0,0-5.269-4.8A5.36,5.36,0,0,0,2.6,215.763a5.147,5.147,0,0,0,5.363,5.175" transform="translate(-0.154 -12.445)" fill="#fff"></path> <path id="Path_477319" data-name="Path 477319" d="M16.6,211.1h4.14v2.823h.094l3.2-2.823h4.7l-3.857,3.481,4.516,4.7H24.033l-3.2-3.293H20.74v3.293H16.6Z" transform="translate(-0.983 -12.487)" fill="#fff"></path> <g id="Group_201368" data-name="Group 201368" transform="translate(28.319 198.425)"> <path id="Path_477320" data-name="Path 477320" d="M36.215,217.862c1.882,0,1.788-2.07,1.788-2.728s0-2.54-1.788-2.54-1.788,1.882-1.788,2.54-.094,2.728,1.788,2.728m0-6.962c4.8,0,6.115.941,6.115,4.328s-1.317,4.328-6.115,4.328-6.115-.941-6.115-4.328c.094-3.387,1.317-4.328,6.115-4.328" transform="translate(-30.1 -210.9)" fill="#fff"></path> </g> <path id="Path_477321" data-name="Path 477321" d="M52.333,216.281v3.1H56.66V211.2H52.333v2.823h-3.1V211.2H44.9v8.185h4.328v-3.1Z" transform="translate(-2.657 -12.493)" fill="#fff"></path> <path id="Path_477322" data-name="Path 477322" d="M59.6,211.2h4.422v6.21h4.046a1.016,1.016,0,0,0,.753-.376v2.352H59.6V211.2Z" transform="translate(-3.527 -12.493)" fill="#fff"></path> <path id="Path_477323" data-name="Path 477323" d="M79.726,213.923a3.728,3.728,0,0,0-2.54-.941c-.847,0-1.6.282-1.6.753,0,.376.564.564,2.54.941,1.6.376,2.728,1.129,2.728,2.634,0,1.694-2.917,2.634-5.457,2.634a10.3,10.3,0,0,1-4.422-.847v-2.258a6.294,6.294,0,0,0,3.857,1.223c.753,0,1.129-.094,1.129-.659,0-.376-.47-.659-1.882-.941-2.634-.47-3.481-1.223-3.481-2.446,0-1.788,2.258-2.917,5.081-2.917a9.838,9.838,0,0,1,4.14.564v2.258Z" transform="translate(-4.177 -12.487)" fill="#fff"></path> <path id="Path_477324" data-name="Path 477324" d="M66.656,214.483l.282-.565a1.606,1.606,0,0,1-.753-2.258,1.63,1.63,0,0,1,2.634.094,1.307,1.307,0,0,1-.282,1.882c-.188.376-1.882.847-1.882.847" transform="translate(-3.903 -12.483)" fill="#fff"></path> <path id="Path_477325" data-name="Path 477325" d="M81.165,211.965c.094,0,.188,0,.188-.094s-.094-.094-.188-.094h-.188v.188h.188Zm-.094.282h0l-.094-.659h.282c.188,0,.188.094.188.188a.2.2,0,0,1-.188.188l.188.282h-.094l-.188-.282H81.07v.282Zm-.376-.282a.47.47,0,1,0,.47-.47.444.444,0,0,0-.47.47m1.035,0a.565.565,0,1,1-.564-.565.607.607,0,0,1,.564.565" transform="translate(-4.769 -12.505)" fill="#fff"></path> <path id="Path_477326" data-name="Path 477326" d="M28.789,70.189h-.282a38.717,38.717,0,0,1-7.9-2.54A35.365,35.365,0,0,1,23.144,2.26a35.405,35.405,0,0,1,44.5,47.983l-.094.188c-.094.094-.094.282-.188.376A1.2,1.2,0,0,1,65.2,49.772l.282-.565A33.059,33.059,0,0,0,49.3,5.459a32.573,32.573,0,0,0-25.214-.941A32.419,32.419,0,0,0,5.456,21.641,33.075,33.075,0,0,0,21.639,65.484a35.388,35.388,0,0,0,7.339,2.446,1.2,1.2,0,0,1,.941,1.411,1.13,1.13,0,0,1-1.129.847" transform="translate(0 0)" fill="#fff"></path> <path id="Path_477327" data-name="Path 477327" d="M69.461,55.452a.566.566,0,0,1-.376-.094,1.136,1.136,0,0,1-.659-.659L62.593,42.092a1.2,1.2,0,1,1,2.164-1.035L70.12,52.536,81.5,46.985a1.2,1.2,0,0,1,1.035,2.164L70.026,55.17c-.282.188-.376.282-.564.282" transform="translate(-3.697 -2.387)" fill="#fff"></path> <path id="Path_477328" data-name="Path 477328" d="M60.363,66.127a1.18,1.18,0,0,1-.847-2.07c.094-.094.282-.188.376-.376a1.2,1.2,0,1,1,1.6,1.788l-.376.376a1.068,1.068,0,0,1-.753.282M51.8,71.678a1.223,1.223,0,0,1-1.129-.753,1.242,1.242,0,0,1,.564-1.6l.47-.188A1.2,1.2,0,1,1,52.742,71.3l-.47.282c-.188,0-.282.094-.47.094m-9.879,2.728A1.3,1.3,0,0,1,40.7,73.371a1.171,1.171,0,0,1,1.035-1.317l.47-.094a1.184,1.184,0,0,1,.282,2.352l-.565.094h0" transform="translate(-2.408 -3.747)" fill="#fff"></path> <path id="Path_477329" data-name="Path 477329" d="M37.058,52.973a.848.848,0,0,1-.47-.094L19.653,45.822a1.223,1.223,0,0,1-.753-1.129V26.723a1.223,1.223,0,0,1,2.446,0V43.846l15.712,6.586,14.771-6.586V26.723a1.223,1.223,0,1,1,2.446,0v17.97a1.223,1.223,0,0,1-.753,1.129l-15.9,7.056c-.282,0-.376.094-.565.094" transform="translate(-1.119 -1.507)" fill="#fff"></path> <path id="Path_477330" data-name="Path 477330" d="M37.057,34.907a.848.848,0,0,1-.47-.094L19.652,27.851a1.223,1.223,0,1,1,.941-2.258l16.465,6.774,15.43-6.774a1.223,1.223,0,1,1,.941,2.258l-15.9,6.962a.848.848,0,0,1-.47.094" transform="translate(-1.118 -1.506)" fill="#fff"></path> <path id="Path_477331" data-name="Path 477331" d="M38.123,53.41A1.245,1.245,0,0,1,36.9,52.187V34.123a1.223,1.223,0,0,1,2.446,0V52.187a1.245,1.245,0,0,1-1.223,1.223" transform="translate(-2.184 -1.944)" fill="#fff"></path> <path id="Path_477332" data-name="Path 477332" d="M20.125,27.6A1.182,1.182,0,0,1,19,26.758a1.157,1.157,0,0,1,.753-1.505L36.214,19.8a1.039,1.039,0,0,1,.753,0l16.465,5.457a1.19,1.19,0,0,1-.753,2.258L36.59,22.148,20.5,27.51a.566.566,0,0,1-.376.094" transform="translate(-1.121 -1.165)" fill="#fff"></path> </g> </svg>