<svg class="svg-scd-header" aria-label="Summer Cyber Deals" xmlns="http://www.w3.org/2000/svg" viewBox="0 0 742.63 99.96"> <style>.svg_scd_0{fill:#e91a46}.svg_scd_2{fill:#fff}</style><g id="Summer_Cyber_Deals_1-line_HEX" transform="translate(.031 .02)"><g id="Group_190638" transform="translate(-.031 -.02)"><path id="Rectangle_41042" d="M1.26 22.66H248.1v72.79H1.26z" class="svg_scd_0" transform="rotate(-2.144 124.639 59.129)"></path><path id="Rectangle_41043" d="M247.96 13.65H494.8v72.79H247.96z" style="fill:#c1d831" transform="rotate(-2.144 371.354 50.27)"></path><path id="Rectangle_41044" d="M494.54 4.52h246.84v72.79H494.54z" class="svg_scd_0" transform="rotate(-2.144 617.932 41.29)"></path></g><g id="Group_190639" transform="translate(22.402 40.89)"><path id="Path_332148" d="m0 34.58 4.02-5.23c3.04 2.31 6.09 3.65 9.86 3.53 2.92-.12 4.62-1.34 4.5-3.17v-.12c-.12-1.83-1.22-2.68-6.69-3.9C5.11 24.23.85 22.65.61 16.2v-.12C.37 10.23 4.99 6.09 11.56 5.85c4.35-.18 8.64 1.11 12.17 3.65l-3.53 5.48a16.628 16.628 0 0 0-8.52-2.92c-2.68.12-4.14 1.46-4.02 2.92v.12c.12 2.07 1.46 2.8 7.18 4.02 6.57 1.46 10.47 3.65 10.59 9.37v.12c.24 6.45-4.5 10.22-11.56 10.47-5.03.33-9.99-1.28-13.87-4.5z" class="svg_scd_2"></path><path id="Path_332149" d="m30.55 24.23-.61-18.38L37 5.61l.73 18.26c.24 5.23 2.92 7.91 7.3 7.79s6.94-2.92 6.69-8.03L51 5.12l7.06-.24.73 18.26c.36 9.74-4.99 14.85-13.63 15.09-8.77.24-14.24-4.38-14.61-14z" class="svg_scd_2"></path><path id="Path_332150" d="m65 4.52 7.67-.24 9.01 13.38 8.03-14 7.67-.24L98.6 35.8l-7.06.24-.74-21.18-8.64 14.12h-.24l-9.49-13.39.73 20.93-6.94.24L65 4.52z" class="svg_scd_2"></path><path id="Path_332151" d="m104.8 3.06 7.67-.24 9.01 13.39 8.03-14 7.67-.24 1.22 32.38-7.06.24-.74-21.19-8.64 14.12h-.24l-9.49-13.39.73 20.94-6.94.24-1.22-32.25z" class="svg_scd_2"></path><path id="Path_332152" d="m144.47 1.59 24.34-.85.24 6.33-17.28.61.24 6.57 15.21-.61.24 6.33-15.21.61.24 6.82 17.53-.61.24 6.33-24.59.85-1.2-32.38z" class="svg_scd_2"></path><path id="Path_332153" d="m175.15.5 14.73-.49c4.14-.12 7.3.85 9.49 2.92a10.35 10.35 0 0 1 3.04 7.3v.12c.41 4.51-2.3 8.72-6.57 10.22l8.28 11.32-8.28.36-7.3-10.1-5.6.24.37 10.35-7.06.24L175.15.5zM190 15.59c3.41-.12 5.35-2.07 5.23-4.75v-.12c-.12-3.04-2.31-4.5-5.72-4.38l-7.06.24.37 9.25 7.18-.24z" class="svg_scd_2"></path></g><g id="Group_190640" transform="translate(291.618 33.587)"><path id="Path_332154" d="M.01 21.67C-.51 12.59 6.44 4.81 15.52 4.29c.27-.02.54-.02.81-.03 6.09-.24 9.86 1.7 12.9 4.5l-4.38 5.35c-2.56-2.19-5.11-3.41-8.4-3.29-5.48.24-9.25 4.87-9.01 10.47v.12c.24 5.6 4.26 9.98 9.74 9.86 3.65-.12 5.96-1.7 8.4-4.14l4.75 4.38a16.23 16.23 0 0 1-13.02 6.21C7.68 37.98.26 30.92.01 21.67z"></path><path id="Path_332155" d="M43.95 23.38 30.81 4.15l8.28-.36 8.15 12.66 7.42-13.27 8.03-.24-11.68 19.95.49 12.9-7.06.24-.49-12.65z"></path><path id="Path_332156" d="m66.84 2.93 14.97-.61c3.65-.12 6.69.73 8.52 2.56a7.415 7.415 0 0 1 2.43 5.48v.12a7.643 7.643 0 0 1-4.02 7.18c3.77 1.34 6.21 3.41 6.33 7.67v.12c.24 5.96-4.5 9.01-11.81 9.37l-15.34.61-1.08-32.5zm18.98 8.89C85.7 9.75 84 8.53 81.08 8.66l-7.06.24.24 6.82 6.57-.24c3.05-.13 4.99-1.23 4.99-3.66zm-3.16 9.49-8.28.24.24 7.06 8.4-.37c3.17-.12 4.99-1.34 4.87-3.65v-.12c.12-2.06-1.58-3.28-5.23-3.16z"></path><path id="Path_332157" d="m99.82 1.71 24.34-.85.24 6.33-17.28.61.24 6.57 15.21-.61.24 6.33-15.21.49.24 6.82 17.53-.61.24 6.33-24.59.85-1.2-32.26z"></path><path id="Path_332158" d="m130.37.5 14.85-.49c4.14-.12 7.3.85 9.49 2.92a10.35 10.35 0 0 1 3.04 7.3v.12c.41 4.51-2.3 8.72-6.57 10.22l8.28 11.32-8.28.37-7.3-10.1-5.6.24.36 10.35-7.06.24L130.37.5zm14.97 15.21c3.41-.12 5.36-2.07 5.23-4.75v-.12c-.12-3.04-2.31-4.5-5.72-4.38l-7.06.24.36 9.25 7.19-.24z"></path></g><g id="Group_190641" transform="translate(543.591 24.71)"><path id="Path_332159" d="m0 5.67 12.62-.46c10.16-.38 17.44 6.34 17.78 15.44v.1c.34 9.1-6.43 16.43-16.59 16.81l-12.62.47L0 5.67zm7.35 6.16.72 19.5 5.5-.21c5.82-.22 9.6-4.28 9.4-10.02V21c-.21-5.73-4.28-9.6-10.11-9.4l-5.51.23z" class="svg_scd_2"></path><path id="Path_332160" d="m35.77 4.36 24.4-.9.23 6.33-17.33.63.24 6.56 15.26-.56.23 6.33-15.25.56.26 6.79 17.56-.65.23 6.33-24.63.92-1.2-32.34z" class="svg_scd_2"></path><path id="Path_332161" d="m77.46 2.59 6.56-.24 15.07 32.07-7.44.28-3.22-7.15-13.68.5-2.69 7.37-7.25.27 12.65-33.1zm8.19 18.77-4.69-10.33-3.91 10.65 8.6-.32z" class="svg_scd_2"></path><path id="Path_332162" d="m102.52 1.9 7.12-.26.95 25.88 16.13-.6.24 6.48-23.25.85-1.19-32.35z" class="svg_scd_2"></path><path id="Path_332163" d="m129.55 28.58 4.02-5.19c2.99 2.3 6.11 3.71 9.8 3.57 2.91-.11 4.62-1.33 4.55-3.22v-.1c-.06-1.8-1.2-2.69-6.67-3.87-6.58-1.42-10.85-3.07-11.09-9.49v-.1c-.22-5.87 4.36-9.92 10.97-10.16 4.36-.23 8.67 1.07 12.17 3.68l-3.51 5.5c-2.93-1.89-5.81-2.98-8.53-2.89s-4.11 1.4-4.05 2.97v.1c.07 2.13 1.48 2.76 7.13 3.99 6.62 1.47 10.41 3.69 10.61 9.32v.1c.23 6.43-4.53 10.21-11.5 10.47-5.04.19-9.99-1.47-13.9-4.68z" class="svg_scd_2"></path></g></g> </svg>