<svg class="svg-h-scd-header" aria-label="Summer Cyber Deals" xmlns="http://www.w3.org/2000/svg" viewBox="0 0 724.36 367.3"> <style>.h_scd-0{fill:#e91a46}.h_scd-1{fill:#fff}</style><g id="Summer_Cyber_Deals_3-line_Bleed_HEX" transform="translate(.002 .004)"><path id="Rectangle_41047" d="M2.29 241.51h719.72v107.22H2.29z" class="h_scd-0" transform="rotate(-2.969 362.124 295.093)"></path><g id="Group_190644" transform="translate(228.805 261.156)"><path id="Path_332180" d="m0 13.34 21.35-1.1c17.21-.89 29.71 10.31 30.51 25.71l.01.16C52.67 53.52 41.4 66.1 24.19 67L2.84 68.1 0 13.34zm12.61 10.24 1.71 33.01 9.31-.49c9.86-.51 16.16-7.5 15.66-17.21l-.01-.16c-.5-9.7-7.5-16.16-17.36-15.65l-9.31.5z" class="h_scd-1"></path><path id="Path_332181" d="m61.17 10.17 41.3-2.14.55 10.72-29.33 1.52.58 11.11 25.81-1.34.55 10.72-25.81 1.34.59 11.5 29.72-1.54.55 10.72-41.69 2.17-2.82-54.78z" class="h_scd-1"></path><path id="Path_332182" d="m132.33 6.08 11.11-.58 26.33 53.93-12.6.65-5.64-12.02-23.15 1.2L124 61.8l-12.28.64 20.61-56.36zm14.34 31.58-8.2-17.38-6.36 18.13 14.56-.75z" class="h_scd-1"></path><path id="Path_332183" d="m175.37 4.24 12.05-.63 2.27 43.8 27.3-1.42.57 10.95-39.34 2.04-2.85-54.74z" class="h_scd-1"></path><path id="Path_332184" d="m222.46 48.71 6.68-8.9c5.14 3.81 10.44 6.13 16.7 5.8 4.93-.26 7.8-2.37 7.64-5.57l-.01-.16c-.16-3.05-2.12-4.52-11.39-6.39-11.17-2.24-18.45-4.92-19.01-15.8l-.01-.16C222.55 7.6 230.18.61 241.37.03c7.38-.5 14.7 1.59 20.7 5.91l-5.79 9.4c-5.02-3.11-9.9-4.9-14.52-4.66s-6.93 2.47-6.79 5.14l.01.16c.19 3.6 2.6 4.65 12.18 6.59 11.25 2.32 17.73 5.99 18.22 15.52l.01.16c.56 10.88-7.41 17.4-19.23 18.01-8.56.47-16.99-2.22-23.7-7.55z" class="h_scd-1"></path></g><path id="Rectangle_41048" d="M307.79-170.84h109.1v719.26h-109.1z" style="fill:#c1d831" transform="rotate(-86.962 362.344 188.788)"></path><g id="Group_190645" transform="translate(226.22 156.251)"><path id="Path_332185" d="m.05 26.82.01-.16C.98 11.11 13.47-.94 30.28.05 40.6.66 46.57 4.47 51.36 9.77l-8.19 8.38c-4-4.08-8.15-6.68-13.63-7.01-9.23-.54-16.32 6.72-16.89 16.1l-.01.16c-.55 9.38 5.47 17.59 14.86 18.14 6.26.37 10.23-1.9 14.77-5.56l7.21 8.2c-5.99 5.69-12.47 9.07-23.02 8.44C10.35 55.68-.88 42.54.05 26.82z"></path><path id="Path_332186" d="M74.47 36.88 55.4 2.48l14.07.83 11.76 22.75L95.82 4.89l13.69.81-22.99 31.66-1.29 21.82-12.04-.72 1.28-21.58z"></path><path id="Path_332187" d="m117.01 6.14 25.41 1.51c6.26.37 11.08 2.38 14.02 5.7 2.35 2.59 3.51 6.05 3.2 9.53l-.01.16c-.36 6.18-3.85 9.42-7.89 11.38 6.19 2.8 9.88 6.7 9.45 14.06l-.01.16c-.59 10.01-9.02 14.53-21.38 13.8l-26.04-1.54 3.25-54.76zm23.74 33.65-13.92-.82-.72 12.04 14.3.85c5.32.31 8.63-1.37 8.87-5.43l.01-.16c.24-3.68-2.36-6.11-8.54-6.48zm6.81-15.6c.21-3.6-2.48-5.8-7.56-6.1l-11.89-.7-.68 11.57 11.11.66c5.32.31 8.78-1.2 9.02-5.27v-.16z"></path><path id="Path_332188" d="m173.46 9.48 41.28 2.45-.64 10.71-29.32-1.74-.65 11.1 25.81 1.53-.64 10.71-25.8-1.52-.68 11.49 29.71 1.76-.64 10.71-41.68-2.47 3.25-54.73z"></path><path id="Path_332189" d="m225.85 12.59 25.02 1.48c6.96.41 12.23 2.69 15.62 6.5 2.87 3.23 4.25 7.63 3.95 12.79l-.01.16c-.52 8.84-5.62 14.11-12.74 16.27l12.21 20.34-14.07-.83-10.68-18.21-9.47-.56-1.04 17.51-12.04-.72 3.25-54.73zm22.65 28.02c5.86.35 9.41-2.58 9.69-7.2l.01-.16c.3-5.16-3.13-8.03-8.99-8.38l-11.96-.71-.93 15.71 12.18.74z"></path></g><path id="Rectangle_41049" d="M2.29 18.56h719.72v107.22H2.29z" class="h_scd-0" transform="rotate(-2.969 362.122 72.169)"></path><g id="Group_190646" transform="translate(187.433 39.104)"><path id="Path_332190" d="m0 63.73 6.68-8.9c5.14 3.81 10.44 6.13 16.7 5.8 4.93-.26 7.8-2.37 7.64-5.57l-.01-.16c-.16-3.05-2.12-4.52-11.39-6.39C8.45 46.26 1.17 43.58.61 32.71l-.01-.16c-.51-9.93 7.12-16.92 18.31-17.5a31.8 31.8 0 0 1 20.7 5.9l-5.79 9.42c-5.02-3.11-9.9-4.9-14.52-4.66s-6.93 2.47-6.79 5.14V31c.19 3.6 2.6 4.65 12.19 6.59 11.25 2.32 17.73 5.99 18.22 15.53l.01.16c.56 10.88-7.41 17.4-19.23 18.02-8.56.47-17-2.22-23.7-7.57z" class="h_scd-1"></path><path id="Path_332191" d="m52.15 45.5-1.62-31.29 12.05-.63 1.61 30.97c.46 8.92 5.16 13.3 12.52 12.92s11.58-5.07 11.13-13.75L86.2 12.37l12.05-.63 1.6 30.9c.86 16.58-8.03 25.2-22.73 25.96s-24.14-6.99-24.97-23.1z" class="h_scd-1"></path><path id="Path_332192" d="m110.52 11.09 12.98-.68 15.59 22.41 13.19-23.9 12.98-.68L168.11 63l-11.97.62-1.86-35.75-14.2 24.19-.31.02-16.45-22.36 1.84 35.51-11.82.61-2.82-54.75z" class="h_scd-1"></path><path id="Path_332193" d="m178.41 7.57 12.99-.67 15.59 22.41 13.19-23.9 12.98-.68L236 59.48l-11.97.62-1.86-35.75-14.2 24.19-.31.02-16.45-22.36 1.84 35.51-11.82.61-2.82-54.75z" class="h_scd-1"></path><path id="Path_332194" d="m246.31 4.05 41.3-2.14.55 10.72-29.33 1.53.58 11.11 25.81-1.34.55 10.72-25.81 1.34.59 11.5 29.72-1.54.55 10.72-41.69 2.16-2.82-54.78z" class="h_scd-1"></path><path id="Path_332195" d="M298.71 1.34 323.74.05c6.96-.36 12.46 1.31 16.24 4.72 3.21 2.89 5.08 7.11 5.34 12.27l.01.16c.46 8.84-4.02 14.64-10.85 17.59l14.39 18.86-14.08.73-12.64-16.91-9.47.5.91 17.52-12.04.63-2.84-54.78zm25.63 25.34c5.87-.31 9.07-3.61 8.83-8.22l-.01-.16c-.26-5.16-4.01-7.64-9.87-7.33l-11.97.62.82 15.72 12.2-.63z" class="h_scd-1"></path></g></g> </svg>